<?xml version="1.0" encoding="utf-8"?>
<!-- Generator: Adobe Illustrator 17.0.0, SVG Export Plug-In . SVG Version: 6.00 Build 0)  -->
<!DOCTYPE svg PUBLIC "-//W3C//DTD SVG 1.1//EN" "http://www.w3.org/Graphics/SVG/1.1/DTD/svg11.dtd">
<svg version="1.1" id="Layer_1" xmlns="http://www.w3.org/2000/svg" xmlns:xlink="http://www.w3.org/1999/xlink" x="0px" y="0px"
	 width="1424px" height="48px" viewBox="0 0 1424 48" enable-background="new 0 0 1424 48" xml:space="preserve">
<rect fill="#54D126" width="178" height="48"/>
<rect x="178" fill="#28CE86" width="178" height="48"/>
<rect x="356" fill="#29C8CC" width="178" height="48"/>
<rect x="534" fill="#2B87CC" width="178" height="48"/>
<rect x="712" fill="#2E3DCC" width="178" height="48"/>
<rect x="890" fill="#AE2FCC" width="178" height="48"/>
<rect x="1068" fill="#CC329D" width="178" height="48"/>
<rect x="1246" fill="#CC3333" width="178" height="48"/>
<g>
	<path fill="#FFFFFF" d="M243.274,19.852l-2.557,2.25l-1.529-1.764l4.157-3.51h2.521v12.744h-2.592V19.852z"/>
	<path fill="#FFFFFF" d="M249.628,26.711l4.95-4.447c0.252-0.227,0.504-0.485,0.756-0.773s0.378-0.624,0.378-1.008
		c0-0.432-0.156-0.771-0.468-1.018c-0.312-0.246-0.679-0.369-1.099-0.369c-0.504,0-0.896,0.156-1.179,0.469
		s-0.441,0.695-0.477,1.152l-2.7-0.199c0.036-0.659,0.174-1.232,0.414-1.719c0.239-0.485,0.558-0.891,0.954-1.215
		c0.396-0.324,0.86-0.566,1.395-0.729s1.113-0.243,1.737-0.243c0.576,0,1.116,0.081,1.62,0.243s0.941,0.402,1.313,0.72
		c0.372,0.318,0.663,0.718,0.873,1.197s0.315,1.038,0.315,1.674c0,0.408-0.042,0.776-0.126,1.106s-0.201,0.631-0.352,0.9
		s-0.327,0.52-0.53,0.747c-0.205,0.228-0.427,0.45-0.666,0.666l-3.87,3.33h5.651v2.376h-8.892V26.711z"/>
	<path fill="#FFFFFF" d="M264.28,26.17h-4.428v-2.16h4.428V26.17z"/>
	<path fill="#FFFFFF" d="M265.611,26.711l4.95-4.447c0.252-0.227,0.504-0.485,0.756-0.773s0.378-0.624,0.378-1.008
		c0-0.432-0.155-0.771-0.468-1.018c-0.312-0.246-0.678-0.369-1.098-0.369c-0.504,0-0.897,0.156-1.179,0.469
		c-0.282,0.312-0.441,0.695-0.478,1.152l-2.7-0.199c0.036-0.659,0.174-1.232,0.414-1.719c0.24-0.485,0.559-0.891,0.954-1.215
		c0.396-0.324,0.861-0.566,1.396-0.729c0.533-0.162,1.112-0.243,1.736-0.243c0.576,0,1.116,0.081,1.62,0.243s0.942,0.402,1.314,0.72
		c0.371,0.318,0.663,0.718,0.873,1.197s0.314,1.038,0.314,1.674c0,0.408-0.042,0.776-0.126,1.106s-0.201,0.631-0.351,0.9
		c-0.15,0.27-0.327,0.52-0.531,0.747s-0.426,0.45-0.666,0.666l-3.87,3.33h5.652v2.376h-8.893V26.711z"/>
	<path fill="#FFFFFF" d="M281.38,27.016h-5.562v-2.268l5.202-7.92h2.952v7.92h1.638v2.268h-1.638v2.557h-2.592V27.016z
		 M281.38,20.356h-0.036l-2.826,4.392h2.862V20.356z"/>
	<path fill="#FFFFFF" d="M289.695,15.965v6.047h0.036c0.061-0.168,0.162-0.336,0.307-0.504c0.144-0.168,0.317-0.317,0.521-0.449
		c0.204-0.133,0.444-0.24,0.72-0.324c0.276-0.084,0.576-0.126,0.9-0.126c0.684,0,1.236,0.104,1.656,0.315
		c0.42,0.209,0.747,0.5,0.98,0.873c0.234,0.371,0.394,0.81,0.478,1.313s0.126,1.05,0.126,1.638v4.824h-2.7v-4.284
		c0-0.252-0.009-0.513-0.027-0.782c-0.018-0.271-0.071-0.52-0.162-0.748c-0.09-0.228-0.228-0.414-0.413-0.558
		c-0.187-0.144-0.453-0.216-0.802-0.216c-0.348,0-0.63,0.062-0.846,0.189c-0.216,0.125-0.381,0.293-0.495,0.504
		c-0.114,0.209-0.188,0.447-0.225,0.711s-0.055,0.539-0.055,0.828v4.355h-2.699V15.965H289.695z"/>
</g>
<g>
	<path fill="#FFFFFF" d="M414.355,19.852l-2.556,2.25l-1.53-1.764l4.158-3.51h2.52v12.744h-2.592V19.852z"/>
	<path fill="#FFFFFF" d="M424.705,26.17h-4.428v-2.16h4.428V26.17z"/>
	<path fill="#FFFFFF" d="M426.037,26.711l4.95-4.447c0.252-0.227,0.504-0.485,0.756-0.773s0.378-0.624,0.378-1.008
		c0-0.432-0.156-0.771-0.468-1.018s-0.679-0.369-1.099-0.369c-0.504,0-0.896,0.156-1.178,0.469
		c-0.283,0.312-0.441,0.695-0.478,1.152l-2.7-0.199c0.036-0.659,0.174-1.232,0.414-1.719c0.24-0.485,0.559-0.891,0.954-1.215
		s0.86-0.566,1.396-0.729c0.533-0.162,1.112-0.243,1.736-0.243c0.576,0,1.116,0.081,1.62,0.243s0.942,0.402,1.313,0.72
		c0.372,0.318,0.664,0.718,0.873,1.197c0.211,0.479,0.315,1.038,0.315,1.674c0,0.408-0.042,0.776-0.126,1.106
		s-0.201,0.631-0.352,0.9s-0.326,0.52-0.53,0.747s-0.427,0.45-0.666,0.666l-3.87,3.33h5.652v2.376h-8.893V26.711z"/>
	<path fill="#FFFFFF" d="M451.272,29.572h-2.483V28.42h-0.037c-0.107,0.156-0.248,0.315-0.422,0.478
		c-0.174,0.161-0.379,0.31-0.612,0.44c-0.233,0.133-0.492,0.24-0.774,0.324c-0.281,0.084-0.572,0.126-0.873,0.126
		c-0.647,0-1.236-0.11-1.764-0.333c-0.528-0.222-0.98-0.533-1.359-0.936c-0.377-0.402-0.668-0.879-0.873-1.432
		c-0.203-0.551-0.306-1.158-0.306-1.817c0-0.612,0.093-1.197,0.279-1.755c0.186-0.559,0.45-1.053,0.792-1.485
		s0.759-0.776,1.251-1.035c0.491-0.258,1.05-0.387,1.674-0.387c0.563,0,1.089,0.087,1.575,0.261s0.885,0.471,1.197,0.891h0.035
		v-5.795h2.7V29.572z M448.789,25.198c0-0.659-0.189-1.194-0.567-1.603c-0.378-0.407-0.909-0.611-1.593-0.611
		s-1.215,0.204-1.594,0.611c-0.377,0.408-0.566,0.943-0.566,1.603c0,0.66,0.189,1.194,0.566,1.603
		c0.379,0.408,0.91,0.611,1.594,0.611s1.215-0.203,1.593-0.611S448.789,25.858,448.789,25.198z"/>
	<path fill="#FFFFFF" d="M458.922,28.475h-0.035c-0.301,0.468-0.699,0.804-1.197,1.008c-0.498,0.203-1.023,0.306-1.574,0.306
		c-0.408,0-0.802-0.058-1.18-0.171s-0.711-0.285-0.999-0.513s-0.517-0.511-0.685-0.847S453,27.532,453,27.088
		c0-0.504,0.094-0.93,0.279-1.277s0.438-0.637,0.756-0.864s0.682-0.405,1.09-0.531c0.407-0.126,0.83-0.219,1.269-0.278
		c0.438-0.061,0.876-0.096,1.313-0.108c0.438-0.012,0.844-0.019,1.215-0.019c0-0.479-0.17-0.86-0.512-1.143
		c-0.343-0.281-0.748-0.423-1.216-0.423c-0.444,0-0.849,0.093-1.215,0.278c-0.366,0.188-0.692,0.441-0.981,0.766l-1.439-1.477
		c0.504-0.467,1.092-0.818,1.764-1.053s1.368-0.351,2.088-0.351c0.793,0,1.443,0.099,1.953,0.297s0.918,0.489,1.225,0.873
		c0.306,0.384,0.519,0.854,0.639,1.413c0.119,0.558,0.18,1.203,0.18,1.936v4.445h-2.484V28.475z M458.256,25.738
		c-0.203,0-0.459,0.009-0.764,0.027c-0.307,0.018-0.602,0.068-0.883,0.152s-0.521,0.211-0.72,0.379s-0.298,0.401-0.298,0.701
		c0,0.324,0.139,0.564,0.414,0.721c0.276,0.156,0.564,0.233,0.865,0.233c0.264,0,0.519-0.036,0.765-0.108
		c0.245-0.071,0.465-0.174,0.657-0.306c0.191-0.132,0.344-0.3,0.459-0.504c0.113-0.204,0.17-0.444,0.17-0.72v-0.576H458.256z"/>
	<path fill="#FFFFFF" d="M468.139,30.994c-0.18,0.469-0.354,0.883-0.521,1.242c-0.169,0.359-0.382,0.663-0.64,0.909
		c-0.259,0.245-0.585,0.432-0.981,0.558c-0.396,0.126-0.918,0.189-1.565,0.189c-0.696,0-1.368-0.108-2.017-0.324l0.36-2.214
		c0.407,0.18,0.828,0.27,1.261,0.27c0.299,0,0.545-0.032,0.737-0.099s0.351-0.162,0.478-0.288c0.125-0.126,0.23-0.278,0.314-0.459
		s0.174-0.39,0.27-0.63l0.199-0.504l-3.834-8.82h2.916l2.25,5.777h0.035l1.926-5.777h2.772L468.139,30.994z"/>
	<path fill="#FFFFFF" d="M478.057,23.398c-0.396-0.492-0.918-0.738-1.566-0.738c-0.229,0-0.449,0.055-0.666,0.162
		c-0.216,0.107-0.324,0.294-0.324,0.559c0,0.215,0.111,0.375,0.334,0.477c0.221,0.102,0.504,0.191,0.846,0.27
		s0.707,0.162,1.098,0.252c0.39,0.09,0.756,0.231,1.098,0.424c0.342,0.191,0.624,0.453,0.846,0.783
		c0.223,0.33,0.334,0.771,0.334,1.322c0,0.564-0.123,1.029-0.369,1.395c-0.246,0.367-0.562,0.66-0.945,0.883
		c-0.385,0.222-0.816,0.378-1.296,0.468s-0.954,0.135-1.422,0.135c-0.612,0-1.23-0.087-1.854-0.261
		c-0.623-0.174-1.152-0.482-1.584-0.928l1.639-1.817c0.252,0.312,0.531,0.549,0.837,0.711s0.663,0.243,1.071,0.243
		c0.312,0,0.594-0.045,0.846-0.135s0.378-0.255,0.378-0.495c0-0.228-0.111-0.399-0.333-0.513c-0.223-0.114-0.504-0.211-0.846-0.289
		c-0.342-0.077-0.709-0.162-1.099-0.252s-0.756-0.225-1.098-0.404c-0.343-0.18-0.624-0.436-0.847-0.766
		c-0.222-0.33-0.332-0.771-0.332-1.322c0-0.516,0.104-0.96,0.314-1.332s0.486-0.678,0.828-0.918s0.734-0.417,1.18-0.531
		c0.443-0.113,0.893-0.171,1.35-0.171c0.576,0,1.158,0.084,1.746,0.252s1.086,0.468,1.494,0.899L478.057,23.398z"/>
</g>
<g>
	<path fill="#FFFFFF" d="M582.438,26.711l4.95-4.447c0.252-0.227,0.504-0.485,0.756-0.773s0.378-0.624,0.378-1.008
		c0-0.432-0.155-0.771-0.468-1.018s-0.678-0.369-1.098-0.369c-0.504,0-0.897,0.156-1.18,0.469c-0.281,0.312-0.441,0.695-0.477,1.152
		l-2.7-0.199c0.036-0.659,0.174-1.232,0.414-1.719c0.239-0.485,0.558-0.891,0.954-1.215s0.861-0.566,1.395-0.729
		c0.534-0.162,1.113-0.243,1.737-0.243c0.576,0,1.116,0.081,1.62,0.243s0.941,0.402,1.314,0.72c0.371,0.318,0.662,0.718,0.873,1.197
		c0.209,0.479,0.314,1.038,0.314,1.674c0,0.408-0.042,0.776-0.126,1.106s-0.201,0.631-0.351,0.9c-0.15,0.27-0.328,0.52-0.531,0.747
		c-0.205,0.228-0.426,0.45-0.666,0.666l-3.87,3.33h5.651v2.376h-8.892V26.711z"/>
	<path fill="#FFFFFF" d="M602.418,26.17h-4.428v-2.16h4.428V26.17z"/>
	<path fill="#FFFFFF" d="M615.162,19.312h-6.301v-2.484h9.324v2.376l-5.094,10.368h-3.15L615.162,19.312z"/>
	<path fill="#FFFFFF" d="M634.313,29.572h-2.483V28.42h-0.037c-0.107,0.156-0.248,0.315-0.422,0.478
		c-0.174,0.161-0.379,0.31-0.612,0.44c-0.233,0.133-0.492,0.24-0.774,0.324c-0.281,0.084-0.572,0.126-0.873,0.126
		c-0.647,0-1.236-0.11-1.764-0.333c-0.528-0.222-0.98-0.533-1.359-0.936c-0.377-0.402-0.668-0.879-0.873-1.432
		c-0.203-0.551-0.306-1.158-0.306-1.817c0-0.612,0.093-1.197,0.279-1.755c0.186-0.559,0.45-1.053,0.792-1.485
		s0.759-0.776,1.251-1.035c0.491-0.258,1.05-0.387,1.674-0.387c0.563,0,1.089,0.087,1.575,0.261s0.885,0.471,1.197,0.891h0.035
		v-5.795h2.7V29.572z M631.83,25.198c0-0.659-0.189-1.194-0.567-1.603c-0.378-0.407-0.909-0.611-1.593-0.611
		s-1.215,0.204-1.594,0.611c-0.377,0.408-0.566,0.943-0.566,1.603c0,0.66,0.189,1.194,0.566,1.603
		c0.379,0.408,0.91,0.611,1.594,0.611s1.215-0.203,1.593-0.611S631.83,25.858,631.83,25.198z"/>
	<path fill="#FFFFFF" d="M641.963,28.475h-0.035c-0.301,0.468-0.699,0.804-1.197,1.008c-0.498,0.203-1.023,0.306-1.574,0.306
		c-0.408,0-0.802-0.058-1.18-0.171s-0.711-0.285-0.999-0.513s-0.517-0.511-0.685-0.847s-0.252-0.726-0.252-1.17
		c0-0.504,0.094-0.93,0.279-1.277s0.438-0.637,0.756-0.864s0.682-0.405,1.09-0.531c0.407-0.126,0.83-0.219,1.269-0.278
		c0.438-0.061,0.876-0.096,1.313-0.108c0.438-0.012,0.844-0.019,1.215-0.019c0-0.479-0.17-0.86-0.512-1.143
		c-0.343-0.281-0.748-0.423-1.216-0.423c-0.444,0-0.849,0.093-1.215,0.278c-0.366,0.188-0.692,0.441-0.981,0.766l-1.439-1.477
		c0.504-0.467,1.092-0.818,1.764-1.053s1.368-0.351,2.088-0.351c0.793,0,1.443,0.099,1.953,0.297s0.918,0.489,1.225,0.873
		c0.306,0.384,0.519,0.854,0.639,1.413c0.119,0.558,0.18,1.203,0.18,1.936v4.445h-2.484V28.475z M641.297,25.738
		c-0.203,0-0.459,0.009-0.764,0.027c-0.307,0.018-0.602,0.068-0.883,0.152s-0.521,0.211-0.72,0.379s-0.298,0.401-0.298,0.701
		c0,0.324,0.139,0.564,0.414,0.721c0.276,0.156,0.564,0.233,0.865,0.233c0.264,0,0.519-0.036,0.765-0.108
		c0.245-0.071,0.465-0.174,0.657-0.306c0.191-0.132,0.344-0.3,0.459-0.504c0.113-0.204,0.17-0.444,0.17-0.72v-0.576H641.297z"/>
	<path fill="#FFFFFF" d="M651.18,30.994c-0.18,0.469-0.354,0.883-0.521,1.242c-0.169,0.359-0.382,0.663-0.64,0.909
		c-0.259,0.245-0.585,0.432-0.981,0.558c-0.396,0.126-0.918,0.189-1.565,0.189c-0.696,0-1.368-0.108-2.017-0.324l0.36-2.214
		c0.407,0.18,0.828,0.27,1.261,0.27c0.299,0,0.545-0.032,0.737-0.099s0.351-0.162,0.478-0.288c0.125-0.126,0.23-0.278,0.314-0.459
		s0.174-0.39,0.27-0.63l0.199-0.504l-3.834-8.82h2.916l2.25,5.777h0.035l1.926-5.777h2.772L651.18,30.994z"/>
	<path fill="#FFFFFF" d="M661.098,23.398c-0.396-0.492-0.918-0.738-1.566-0.738c-0.229,0-0.449,0.055-0.666,0.162
		c-0.216,0.107-0.324,0.294-0.324,0.559c0,0.215,0.111,0.375,0.334,0.477c0.221,0.102,0.504,0.191,0.846,0.27
		s0.707,0.162,1.098,0.252c0.39,0.09,0.756,0.231,1.098,0.424c0.342,0.191,0.624,0.453,0.846,0.783
		c0.223,0.33,0.334,0.771,0.334,1.322c0,0.564-0.123,1.029-0.369,1.395c-0.246,0.367-0.562,0.66-0.945,0.883
		c-0.385,0.222-0.816,0.378-1.296,0.468s-0.954,0.135-1.422,0.135c-0.612,0-1.23-0.087-1.854-0.261
		c-0.623-0.174-1.152-0.482-1.584-0.928l1.639-1.817c0.252,0.312,0.531,0.549,0.837,0.711s0.663,0.243,1.071,0.243
		c0.312,0,0.594-0.045,0.846-0.135s0.378-0.255,0.378-0.495c0-0.228-0.111-0.399-0.333-0.513c-0.223-0.114-0.504-0.211-0.846-0.289
		c-0.342-0.077-0.709-0.162-1.099-0.252s-0.756-0.225-1.098-0.404c-0.343-0.18-0.624-0.436-0.847-0.766
		c-0.222-0.33-0.332-0.771-0.332-1.322c0-0.516,0.104-0.96,0.314-1.332s0.486-0.678,0.828-0.918s0.734-0.417,1.18-0.531
		c0.443-0.113,0.893-0.171,1.35-0.171c0.576,0,1.158,0.084,1.746,0.252s1.086,0.468,1.494,0.899L661.098,23.398z"/>
</g>
<g>
	<path fill="#FFFFFF" d="M767.473,19.312h-6.299v-2.484h9.324v2.376l-5.095,10.368h-3.149L767.473,19.312z"/>
	<path fill="#FFFFFF" d="M776.041,26.17h-4.428v-2.16h4.428V26.17z"/>
	<path fill="#FFFFFF" d="M781.676,19.852l-2.557,2.25l-1.529-1.764l4.157-3.51h2.521v12.744h-2.592V19.852z"/>
	<path fill="#FFFFFF" d="M793.141,27.016h-5.562v-2.268l5.202-7.92h2.951v7.92h1.639v2.268h-1.639v2.557h-2.592V27.016z
		 M793.141,20.356h-0.035l-2.826,4.392h2.861V20.356z"/>
	<path fill="#FFFFFF" d="M813.265,29.572h-2.483V28.42h-0.037c-0.107,0.156-0.248,0.315-0.422,0.478
		c-0.174,0.161-0.379,0.31-0.612,0.44c-0.233,0.133-0.492,0.24-0.774,0.324c-0.281,0.084-0.572,0.126-0.873,0.126
		c-0.647,0-1.236-0.11-1.764-0.333c-0.528-0.222-0.98-0.533-1.359-0.936c-0.377-0.402-0.668-0.879-0.873-1.432
		c-0.203-0.551-0.306-1.158-0.306-1.817c0-0.612,0.093-1.197,0.279-1.755c0.186-0.559,0.45-1.053,0.792-1.485
		s0.759-0.776,1.251-1.035c0.491-0.258,1.05-0.387,1.674-0.387c0.563,0,1.089,0.087,1.575,0.261s0.885,0.471,1.197,0.891h0.035
		v-5.795h2.7V29.572z M810.781,25.198c0-0.659-0.189-1.194-0.567-1.603c-0.378-0.407-0.909-0.611-1.593-0.611
		s-1.215,0.204-1.594,0.611c-0.377,0.408-0.566,0.943-0.566,1.603c0,0.66,0.189,1.194,0.566,1.603
		c0.379,0.408,0.91,0.611,1.594,0.611s1.215-0.203,1.593-0.611S810.781,25.858,810.781,25.198z"/>
	<path fill="#FFFFFF" d="M820.914,28.475h-0.035c-0.301,0.468-0.699,0.804-1.197,1.008c-0.498,0.203-1.023,0.306-1.574,0.306
		c-0.408,0-0.802-0.058-1.18-0.171s-0.711-0.285-0.999-0.513s-0.517-0.511-0.685-0.847s-0.252-0.726-0.252-1.17
		c0-0.504,0.094-0.93,0.279-1.277s0.438-0.637,0.756-0.864s0.682-0.405,1.09-0.531c0.407-0.126,0.83-0.219,1.269-0.278
		c0.438-0.061,0.876-0.096,1.313-0.108c0.438-0.012,0.844-0.019,1.215-0.019c0-0.479-0.17-0.86-0.512-1.143
		c-0.343-0.281-0.748-0.423-1.216-0.423c-0.444,0-0.849,0.093-1.215,0.278c-0.366,0.188-0.692,0.441-0.981,0.766l-1.439-1.477
		c0.504-0.467,1.092-0.818,1.764-1.053s1.368-0.351,2.088-0.351c0.793,0,1.443,0.099,1.953,0.297s0.918,0.489,1.225,0.873
		c0.306,0.384,0.519,0.854,0.639,1.413c0.119,0.558,0.18,1.203,0.18,1.936v4.445h-2.484V28.475z M820.248,25.738
		c-0.203,0-0.459,0.009-0.764,0.027c-0.307,0.018-0.602,0.068-0.883,0.152s-0.521,0.211-0.72,0.379s-0.298,0.401-0.298,0.701
		c0,0.324,0.139,0.564,0.414,0.721c0.276,0.156,0.564,0.233,0.865,0.233c0.264,0,0.519-0.036,0.765-0.108
		c0.245-0.071,0.465-0.174,0.657-0.306c0.191-0.132,0.344-0.3,0.459-0.504c0.113-0.204,0.17-0.444,0.17-0.72v-0.576H820.248z"/>
	<path fill="#FFFFFF" d="M830.131,30.994c-0.181,0.469-0.354,0.883-0.522,1.242c-0.169,0.359-0.382,0.663-0.64,0.909
		c-0.258,0.245-0.584,0.432-0.98,0.558s-0.918,0.189-1.566,0.189c-0.695,0-1.367-0.108-2.016-0.324l0.359-2.214
		c0.408,0.18,0.828,0.27,1.261,0.27c0.3,0,0.546-0.032,0.737-0.099c0.192-0.066,0.352-0.162,0.478-0.288s0.231-0.278,0.315-0.459
		s0.174-0.39,0.27-0.63l0.198-0.504l-3.834-8.82h2.916l2.25,5.777h0.036l1.926-5.777h2.771L830.131,30.994z"/>
	<path fill="#FFFFFF" d="M840.048,23.398c-0.396-0.492-0.918-0.738-1.565-0.738c-0.229,0-0.45,0.055-0.666,0.162
		c-0.217,0.107-0.324,0.294-0.324,0.559c0,0.215,0.111,0.375,0.333,0.477s0.504,0.191,0.846,0.27
		c0.343,0.078,0.708,0.162,1.099,0.252c0.389,0.09,0.756,0.231,1.098,0.424c0.342,0.191,0.623,0.453,0.846,0.783
		s0.333,0.771,0.333,1.322c0,0.564-0.123,1.029-0.368,1.395c-0.246,0.367-0.562,0.66-0.945,0.883
		c-0.385,0.222-0.816,0.378-1.297,0.468c-0.479,0.09-0.953,0.135-1.422,0.135c-0.611,0-1.23-0.087-1.854-0.261
		c-0.624-0.174-1.152-0.482-1.584-0.928l1.638-1.817c0.252,0.312,0.531,0.549,0.837,0.711c0.307,0.162,0.663,0.243,1.071,0.243
		c0.312,0,0.594-0.045,0.847-0.135c0.252-0.09,0.377-0.255,0.377-0.495c0-0.228-0.111-0.399-0.332-0.513
		c-0.223-0.114-0.504-0.211-0.847-0.289c-0.342-0.077-0.708-0.162-1.099-0.252c-0.39-0.09-0.756-0.225-1.098-0.404
		s-0.623-0.436-0.846-0.766s-0.333-0.771-0.333-1.322c0-0.516,0.104-0.96,0.315-1.332c0.209-0.372,0.486-0.678,0.828-0.918
		s0.734-0.417,1.179-0.531c0.443-0.113,0.894-0.171,1.35-0.171c0.576,0,1.158,0.084,1.746,0.252s1.086,0.468,1.494,0.899
		L840.048,23.398z"/>
</g>
<g>
	<path fill="#FFFFFF" d="M937.468,19.852l-2.556,2.25l-1.53-1.764l4.158-3.51h2.52v12.744h-2.592V19.852z"/>
	<path fill="#FFFFFF" d="M948.934,27.016h-5.562v-2.268l5.201-7.92h2.952v7.92h1.639v2.268h-1.639v2.557h-2.592V27.016z
		 M948.934,20.356h-0.036l-2.826,4.392h2.862V20.356z"/>
	<path fill="#FFFFFF" d="M958.474,26.17h-4.428v-2.16h4.428V26.17z"/>
	<path fill="#FFFFFF" d="M962.812,21.85h0.882c0.252,0,0.498-0.018,0.738-0.053c0.24-0.037,0.459-0.105,0.657-0.207
		c0.197-0.103,0.356-0.246,0.477-0.433s0.18-0.429,0.18-0.729c0-0.383-0.152-0.701-0.459-0.953
		c-0.306-0.252-0.681-0.379-1.125-0.379c-0.42,0-0.768,0.115-1.044,0.343c-0.275,0.228-0.456,0.51-0.54,0.846l-2.97-0.612
		c0.145-0.551,0.36-1.022,0.648-1.412c0.288-0.391,0.63-0.705,1.025-0.945c0.396-0.24,0.837-0.417,1.323-0.531
		c0.486-0.113,0.999-0.171,1.539-0.171c0.563,0,1.107,0.069,1.629,0.207c0.522,0.138,0.981,0.354,1.377,0.647
		c0.396,0.295,0.711,0.664,0.945,1.107c0.233,0.444,0.351,0.973,0.351,1.584c0,0.708-0.186,1.314-0.558,1.818
		s-0.912,0.828-1.62,0.972v0.054c0.384,0.049,0.723,0.162,1.017,0.342c0.294,0.181,0.543,0.402,0.747,0.666
		c0.204,0.265,0.36,0.564,0.469,0.9c0.107,0.336,0.161,0.69,0.161,1.062c0,0.636-0.123,1.193-0.368,1.674
		c-0.246,0.48-0.576,0.879-0.99,1.197c-0.414,0.317-0.9,0.555-1.458,0.711c-0.559,0.155-1.149,0.233-1.773,0.233
		c-1.14,0-2.121-0.264-2.942-0.792c-0.822-0.527-1.365-1.361-1.629-2.502l2.844-0.666c0.096,0.457,0.291,0.816,0.585,1.08
		s0.729,0.396,1.305,0.396c0.588,0,1.023-0.153,1.306-0.459c0.281-0.307,0.423-0.699,0.423-1.18c0-0.359-0.075-0.639-0.226-0.837
		s-0.345-0.345-0.585-0.44s-0.51-0.153-0.81-0.172c-0.301-0.018-0.601-0.026-0.9-0.026h-0.63V21.85z"/>
	<path fill="#FFFFFF" d="M970.174,23.2c0-0.756,0.068-1.524,0.206-2.304c0.139-0.78,0.385-1.488,0.738-2.124
		s0.837-1.155,1.449-1.558c0.612-0.401,1.392-0.603,2.34-0.603s1.729,0.201,2.34,0.603c0.612,0.402,1.095,0.922,1.449,1.558
		c0.354,0.636,0.6,1.344,0.738,2.124c0.138,0.779,0.207,1.548,0.207,2.304s-0.069,1.524-0.207,2.304
		c-0.139,0.781-0.385,1.488-0.738,2.125c-0.354,0.636-0.837,1.154-1.449,1.557c-0.611,0.402-1.392,0.603-2.34,0.603
		s-1.728-0.2-2.34-0.603s-1.096-0.921-1.449-1.557c-0.354-0.637-0.6-1.344-0.738-2.125C970.242,24.725,970.174,23.956,970.174,23.2z
		 M972.873,23.2c0,0.336,0.016,0.738,0.045,1.206c0.03,0.468,0.111,0.918,0.243,1.35c0.132,0.433,0.333,0.799,0.604,1.099
		c0.27,0.3,0.65,0.45,1.143,0.45c0.479,0,0.858-0.15,1.134-0.45c0.276-0.3,0.48-0.666,0.612-1.099
		c0.132-0.432,0.213-0.882,0.243-1.35c0.029-0.468,0.045-0.87,0.045-1.206s-0.016-0.737-0.045-1.206
		c-0.03-0.468-0.111-0.918-0.243-1.35s-0.336-0.799-0.612-1.098c-0.275-0.301-0.654-0.451-1.134-0.451
		c-0.492,0-0.873,0.15-1.143,0.451c-0.271,0.299-0.472,0.666-0.604,1.098s-0.213,0.882-0.243,1.35
		C972.889,22.463,972.873,22.864,972.873,23.2z"/>
	<path fill="#FFFFFF" d="M995.697,29.572h-2.484V28.42h-0.036c-0.107,0.156-0.249,0.315-0.423,0.478
		c-0.174,0.161-0.378,0.31-0.611,0.44c-0.234,0.133-0.492,0.24-0.774,0.324s-0.573,0.126-0.873,0.126
		c-0.647,0-1.236-0.11-1.764-0.333c-0.528-0.222-0.981-0.533-1.359-0.936s-0.669-0.879-0.873-1.432
		c-0.204-0.551-0.306-1.158-0.306-1.817c0-0.612,0.093-1.197,0.279-1.755c0.186-0.559,0.449-1.053,0.792-1.485
		c0.342-0.433,0.759-0.776,1.251-1.035c0.491-0.258,1.05-0.387,1.674-0.387c0.563,0,1.089,0.087,1.575,0.261
		c0.485,0.174,0.885,0.471,1.196,0.891h0.036v-5.795h2.7V29.572z M993.213,25.198c0-0.659-0.188-1.194-0.566-1.603
		c-0.378-0.407-0.909-0.611-1.593-0.611c-0.685,0-1.216,0.204-1.594,0.611c-0.378,0.408-0.566,0.943-0.566,1.603
		c0,0.66,0.188,1.194,0.566,1.603s0.909,0.611,1.594,0.611c0.684,0,1.215-0.203,1.593-0.611S993.213,25.858,993.213,25.198z"/>
	<path fill="#FFFFFF" d="M1003.347,28.475h-0.035c-0.301,0.468-0.699,0.804-1.197,1.008c-0.498,0.203-1.023,0.306-1.575,0.306
		c-0.408,0-0.801-0.058-1.179-0.171s-0.711-0.285-0.999-0.513s-0.517-0.511-0.685-0.847s-0.252-0.726-0.252-1.17
		c0-0.504,0.093-0.93,0.279-1.277c0.186-0.348,0.438-0.637,0.756-0.864s0.681-0.405,1.089-0.531s0.831-0.219,1.27-0.278
		c0.438-0.061,0.876-0.096,1.313-0.108c0.438-0.012,0.843-0.019,1.215-0.019c0-0.479-0.171-0.86-0.513-1.143
		c-0.342-0.281-0.747-0.423-1.215-0.423c-0.444,0-0.85,0.093-1.215,0.278c-0.366,0.188-0.693,0.441-0.981,0.766l-1.439-1.477
		c0.504-0.467,1.092-0.818,1.764-1.053s1.368-0.351,2.088-0.351c0.792,0,1.443,0.099,1.953,0.297s0.918,0.489,1.224,0.873
		c0.307,0.384,0.52,0.854,0.64,1.413c0.119,0.558,0.18,1.203,0.18,1.936v4.445h-2.484V28.475z M1002.681,25.738
		c-0.204,0-0.459,0.009-0.765,0.027c-0.306,0.018-0.601,0.068-0.882,0.152c-0.282,0.084-0.522,0.211-0.72,0.379
		c-0.198,0.168-0.298,0.401-0.298,0.701c0,0.324,0.139,0.564,0.414,0.721c0.276,0.156,0.564,0.233,0.864,0.233
		c0.264,0,0.52-0.036,0.766-0.108c0.245-0.071,0.465-0.174,0.656-0.306c0.192-0.132,0.345-0.3,0.459-0.504s0.171-0.444,0.171-0.72
		v-0.576H1002.681z"/>
	<path fill="#FFFFFF" d="M1012.562,30.994c-0.18,0.469-0.354,0.883-0.521,1.242c-0.169,0.359-0.382,0.663-0.64,0.909
		c-0.258,0.245-0.585,0.432-0.98,0.558c-0.396,0.126-0.918,0.189-1.566,0.189c-0.696,0-1.368-0.108-2.016-0.324l0.359-2.214
		c0.408,0.18,0.828,0.27,1.261,0.27c0.3,0,0.546-0.032,0.737-0.099c0.192-0.066,0.352-0.162,0.478-0.288s0.23-0.278,0.314-0.459
		s0.174-0.39,0.271-0.63l0.198-0.504l-3.834-8.82h2.916l2.25,5.777h0.035l1.927-5.777h2.771L1012.562,30.994z"/>
	<path fill="#FFFFFF" d="M1022.48,23.398c-0.396-0.492-0.918-0.738-1.565-0.738c-0.229,0-0.45,0.055-0.666,0.162
		s-0.324,0.294-0.324,0.559c0,0.215,0.111,0.375,0.333,0.477s0.504,0.191,0.846,0.27c0.343,0.078,0.708,0.162,1.099,0.252
		c0.39,0.09,0.756,0.231,1.098,0.424c0.342,0.191,0.624,0.453,0.846,0.783c0.223,0.33,0.333,0.771,0.333,1.322
		c0,0.564-0.123,1.029-0.368,1.395c-0.246,0.367-0.562,0.66-0.945,0.883c-0.385,0.222-0.816,0.378-1.296,0.468
		c-0.48,0.09-0.954,0.135-1.422,0.135c-0.612,0-1.23-0.087-1.854-0.261s-1.152-0.482-1.584-0.928l1.638-1.817
		c0.252,0.312,0.531,0.549,0.838,0.711c0.306,0.162,0.662,0.243,1.07,0.243c0.312,0,0.594-0.045,0.847-0.135
		c0.252-0.09,0.378-0.255,0.378-0.495c0-0.228-0.111-0.399-0.333-0.513c-0.223-0.114-0.504-0.211-0.847-0.289
		c-0.342-0.077-0.708-0.162-1.098-0.252c-0.391-0.09-0.756-0.225-1.098-0.404c-0.343-0.18-0.624-0.436-0.847-0.766
		c-0.222-0.33-0.333-0.771-0.333-1.322c0-0.516,0.105-0.96,0.315-1.332s0.486-0.678,0.828-0.918s0.734-0.417,1.179-0.531
		c0.443-0.113,0.894-0.171,1.35-0.171c0.576,0,1.158,0.084,1.746,0.252s1.086,0.468,1.494,0.899L1022.48,23.398z"/>
</g>
<g>
	<path fill="#FFFFFF" d="M1114.113,21.85h0.881c0.252,0,0.498-0.018,0.738-0.053c0.24-0.037,0.459-0.105,0.657-0.207
		c0.198-0.103,0.356-0.246,0.478-0.433c0.119-0.187,0.18-0.429,0.18-0.729c0-0.383-0.153-0.701-0.459-0.953
		c-0.307-0.252-0.682-0.379-1.125-0.379c-0.42,0-0.769,0.115-1.045,0.343c-0.275,0.228-0.455,0.51-0.539,0.846l-2.971-0.612
		c0.145-0.551,0.36-1.022,0.648-1.412c0.288-0.391,0.63-0.705,1.025-0.945c0.396-0.24,0.838-0.417,1.324-0.531
		c0.485-0.113,0.998-0.171,1.539-0.171c0.562,0,1.106,0.069,1.629,0.207c0.521,0.138,0.98,0.354,1.377,0.647
		c0.396,0.295,0.711,0.664,0.944,1.107c0.233,0.444,0.351,0.973,0.351,1.584c0,0.708-0.186,1.314-0.558,1.818
		s-0.912,0.828-1.62,0.972v0.054c0.385,0.049,0.723,0.162,1.018,0.342c0.293,0.181,0.543,0.402,0.746,0.666
		c0.205,0.265,0.36,0.564,0.469,0.9c0.107,0.336,0.162,0.69,0.162,1.062c0,0.636-0.123,1.193-0.369,1.674s-0.576,0.879-0.99,1.197
		c-0.414,0.317-0.9,0.555-1.458,0.711c-0.558,0.155-1.149,0.233-1.772,0.233c-1.141,0-2.121-0.264-2.943-0.792
		c-0.822-0.527-1.365-1.361-1.629-2.502l2.844-0.666c0.096,0.457,0.291,0.816,0.585,1.08s0.729,0.396,1.306,0.396
		c0.588,0,1.022-0.153,1.305-0.459c0.281-0.307,0.423-0.699,0.423-1.18c0-0.359-0.075-0.639-0.226-0.837s-0.345-0.345-0.584-0.44
		c-0.24-0.096-0.511-0.153-0.811-0.172c-0.301-0.018-0.6-0.026-0.9-0.026h-0.629V21.85z"/>
	<path fill="#FFFFFF" d="M1121.475,23.2c0-0.756,0.068-1.524,0.207-2.304c0.138-0.78,0.384-1.488,0.738-2.124
		c0.354-0.636,0.836-1.155,1.448-1.558c0.612-0.401,1.392-0.603,2.341-0.603c0.947,0,1.728,0.201,2.34,0.603
		c0.611,0.402,1.094,0.922,1.449,1.558c0.354,0.636,0.6,1.344,0.737,2.124c0.138,0.779,0.207,1.548,0.207,2.304
		s-0.069,1.524-0.207,2.304c-0.138,0.781-0.384,1.488-0.737,2.125c-0.355,0.636-0.838,1.154-1.449,1.557
		c-0.612,0.402-1.393,0.603-2.34,0.603c-0.949,0-1.729-0.2-2.341-0.603s-1.095-0.921-1.448-1.557
		c-0.354-0.637-0.601-1.344-0.738-2.125C1121.543,24.725,1121.475,23.956,1121.475,23.2z M1124.174,23.2
		c0,0.336,0.016,0.738,0.045,1.206c0.03,0.468,0.111,0.918,0.244,1.35c0.131,0.433,0.332,0.799,0.603,1.099s0.651,0.45,1.144,0.45
		c0.479,0,0.857-0.15,1.133-0.45c0.276-0.3,0.48-0.666,0.613-1.099c0.131-0.432,0.213-0.882,0.242-1.35s0.045-0.87,0.045-1.206
		s-0.016-0.737-0.045-1.206c-0.029-0.468-0.111-0.918-0.242-1.35c-0.133-0.432-0.337-0.799-0.613-1.098
		c-0.275-0.301-0.654-0.451-1.133-0.451c-0.492,0-0.873,0.15-1.144,0.451c-0.271,0.299-0.472,0.666-0.603,1.098
		c-0.133,0.432-0.214,0.882-0.244,1.35C1124.189,22.463,1124.174,22.864,1124.174,23.2z"/>
	<path fill="#FFFFFF" d="M1136.414,26.17h-4.428v-2.16h4.428V26.17z"/>
	<path fill="#FFFFFF" d="M1142.858,27.016h-5.562v-2.268l5.201-7.92h2.952v7.92h1.638v2.268h-1.638v2.557h-2.592V27.016z
		 M1142.858,20.356h-0.036l-2.826,4.392h2.862V20.356z"/>
	<path fill="#FFFFFF" d="M1148.114,23.2c0-0.756,0.069-1.524,0.206-2.304c0.139-0.78,0.385-1.488,0.738-2.124
		s0.838-1.155,1.449-1.558c0.612-0.401,1.393-0.603,2.34-0.603c0.948,0,1.729,0.201,2.34,0.603c0.612,0.402,1.096,0.922,1.449,1.558
		s0.6,1.344,0.738,2.124c0.138,0.779,0.207,1.548,0.207,2.304s-0.069,1.524-0.207,2.304c-0.139,0.781-0.385,1.488-0.738,2.125
		c-0.354,0.636-0.837,1.154-1.449,1.557c-0.611,0.402-1.392,0.603-2.34,0.603c-0.947,0-1.728-0.2-2.34-0.603
		c-0.611-0.402-1.096-0.921-1.449-1.557c-0.354-0.637-0.6-1.344-0.738-2.125C1148.184,24.725,1148.114,23.956,1148.114,23.2z
		 M1150.814,23.2c0,0.336,0.015,0.738,0.045,1.206c0.029,0.468,0.11,0.918,0.242,1.35c0.133,0.433,0.334,0.799,0.604,1.099
		s0.65,0.45,1.143,0.45c0.48,0,0.858-0.15,1.135-0.45c0.275-0.3,0.479-0.666,0.611-1.099c0.133-0.432,0.213-0.882,0.243-1.35
		s0.045-0.87,0.045-1.206s-0.015-0.737-0.045-1.206c-0.03-0.468-0.11-0.918-0.243-1.35c-0.132-0.432-0.336-0.799-0.611-1.098
		c-0.276-0.301-0.654-0.451-1.135-0.451c-0.492,0-0.873,0.15-1.143,0.451c-0.27,0.299-0.471,0.666-0.604,1.098
		c-0.132,0.432-0.213,0.882-0.242,1.35C1150.829,22.463,1150.814,22.864,1150.814,23.2z"/>
	<path fill="#FFFFFF" d="M1173.638,29.572h-2.483V28.42h-0.037c-0.107,0.156-0.248,0.315-0.422,0.478
		c-0.174,0.161-0.379,0.31-0.612,0.44c-0.233,0.133-0.492,0.24-0.774,0.324c-0.281,0.084-0.572,0.126-0.873,0.126
		c-0.647,0-1.236-0.11-1.764-0.333c-0.528-0.222-0.98-0.533-1.359-0.936c-0.377-0.402-0.668-0.879-0.873-1.432
		c-0.203-0.551-0.306-1.158-0.306-1.817c0-0.612,0.093-1.197,0.279-1.755c0.186-0.559,0.45-1.053,0.792-1.485
		s0.759-0.776,1.251-1.035c0.491-0.258,1.05-0.387,1.674-0.387c0.563,0,1.089,0.087,1.575,0.261s0.885,0.471,1.197,0.891h0.035
		v-5.795h2.7V29.572z M1171.154,25.198c0-0.659-0.189-1.194-0.567-1.603c-0.378-0.407-0.909-0.611-1.593-0.611
		s-1.215,0.204-1.594,0.611c-0.377,0.408-0.566,0.943-0.566,1.603c0,0.66,0.189,1.194,0.566,1.603
		c0.379,0.408,0.91,0.611,1.594,0.611s1.215-0.203,1.593-0.611S1171.154,25.858,1171.154,25.198z"/>
	<path fill="#FFFFFF" d="M1181.287,28.475h-0.035c-0.301,0.468-0.699,0.804-1.197,1.008c-0.498,0.203-1.023,0.306-1.574,0.306
		c-0.408,0-0.802-0.058-1.18-0.171s-0.711-0.285-0.999-0.513s-0.517-0.511-0.685-0.847s-0.252-0.726-0.252-1.17
		c0-0.504,0.094-0.93,0.279-1.277s0.438-0.637,0.756-0.864s0.682-0.405,1.09-0.531c0.407-0.126,0.83-0.219,1.269-0.278
		c0.438-0.061,0.876-0.096,1.313-0.108c0.438-0.012,0.844-0.019,1.215-0.019c0-0.479-0.17-0.86-0.512-1.143
		c-0.343-0.281-0.748-0.423-1.216-0.423c-0.444,0-0.849,0.093-1.215,0.278c-0.366,0.188-0.692,0.441-0.981,0.766l-1.439-1.477
		c0.504-0.467,1.092-0.818,1.764-1.053s1.368-0.351,2.088-0.351c0.793,0,1.443,0.099,1.953,0.297s0.918,0.489,1.225,0.873
		c0.306,0.384,0.519,0.854,0.639,1.413c0.119,0.558,0.18,1.203,0.18,1.936v4.445h-2.484V28.475z M1180.621,25.738
		c-0.203,0-0.459,0.009-0.764,0.027c-0.307,0.018-0.602,0.068-0.883,0.152s-0.521,0.211-0.72,0.379s-0.298,0.401-0.298,0.701
		c0,0.324,0.139,0.564,0.414,0.721c0.276,0.156,0.564,0.233,0.865,0.233c0.264,0,0.519-0.036,0.765-0.108
		c0.245-0.071,0.465-0.174,0.657-0.306c0.191-0.132,0.344-0.3,0.459-0.504c0.113-0.204,0.17-0.444,0.17-0.72v-0.576H1180.621z"/>
	<path fill="#FFFFFF" d="M1190.504,30.994c-0.181,0.469-0.354,0.883-0.522,1.242c-0.169,0.359-0.382,0.663-0.64,0.909
		c-0.258,0.245-0.584,0.432-0.98,0.558s-0.918,0.189-1.566,0.189c-0.695,0-1.367-0.108-2.016-0.324l0.359-2.214
		c0.408,0.18,0.828,0.27,1.261,0.27c0.3,0,0.546-0.032,0.737-0.099c0.192-0.066,0.352-0.162,0.478-0.288s0.231-0.278,0.315-0.459
		s0.174-0.39,0.27-0.63l0.198-0.504l-3.834-8.82h2.916l2.25,5.777h0.036l1.926-5.777h2.771L1190.504,30.994z"/>
	<path fill="#FFFFFF" d="M1200.422,23.398c-0.396-0.492-0.918-0.738-1.566-0.738c-0.229,0-0.449,0.055-0.666,0.162
		c-0.216,0.107-0.324,0.294-0.324,0.559c0,0.215,0.111,0.375,0.334,0.477c0.221,0.102,0.504,0.191,0.846,0.27
		s0.707,0.162,1.098,0.252c0.39,0.09,0.756,0.231,1.098,0.424c0.342,0.191,0.624,0.453,0.846,0.783
		c0.223,0.33,0.334,0.771,0.334,1.322c0,0.564-0.123,1.029-0.369,1.395c-0.246,0.367-0.562,0.66-0.945,0.883
		c-0.385,0.222-0.816,0.378-1.296,0.468s-0.954,0.135-1.422,0.135c-0.612,0-1.23-0.087-1.854-0.261
		c-0.623-0.174-1.152-0.482-1.584-0.928l1.639-1.817c0.252,0.312,0.531,0.549,0.837,0.711s0.663,0.243,1.071,0.243
		c0.312,0,0.594-0.045,0.846-0.135s0.378-0.255,0.378-0.495c0-0.228-0.111-0.399-0.333-0.513c-0.223-0.114-0.504-0.211-0.846-0.289
		c-0.342-0.077-0.709-0.162-1.099-0.252s-0.756-0.225-1.098-0.404c-0.343-0.18-0.624-0.436-0.847-0.766
		c-0.222-0.33-0.332-0.771-0.332-1.322c0-0.516,0.104-0.96,0.314-1.332s0.486-0.678,0.828-0.918s0.734-0.417,1.18-0.531
		c0.443-0.113,0.893-0.171,1.35-0.171c0.576,0,1.158,0.084,1.746,0.252s1.086,0.468,1.494,0.899L1200.422,23.398z"/>
</g>
<g>
	<path fill="#FFFFFF" d="M1297.664,26.368l5.706-2.231V24.1l-5.706-2.231V19.42l9.108,3.564v2.268l-9.108,3.564V26.368z"/>
	<path fill="#FFFFFF" d="M1314.206,27.016h-5.562v-2.268l5.201-7.92h2.952v7.92h1.639v2.268h-1.639v2.557h-2.592V27.016z
		 M1314.206,20.356h-0.036l-2.826,4.392h2.862V20.356z"/>
	<path fill="#FFFFFF" d="M1319.462,23.2c0-0.756,0.069-1.524,0.207-2.304c0.138-0.78,0.384-1.488,0.738-2.124
		c0.354-0.636,0.837-1.155,1.448-1.558c0.612-0.401,1.393-0.603,2.341-0.603c0.947,0,1.728,0.201,2.34,0.603
		c0.611,0.402,1.095,0.922,1.449,1.558c0.354,0.636,0.6,1.344,0.737,2.124c0.138,0.779,0.207,1.548,0.207,2.304
		s-0.069,1.524-0.207,2.304c-0.138,0.781-0.384,1.488-0.737,2.125c-0.354,0.636-0.838,1.154-1.449,1.557
		c-0.612,0.402-1.393,0.603-2.34,0.603c-0.948,0-1.729-0.2-2.341-0.603c-0.611-0.402-1.095-0.921-1.448-1.557
		c-0.354-0.637-0.601-1.344-0.738-2.125C1319.531,24.725,1319.462,23.956,1319.462,23.2z M1322.162,23.2
		c0,0.336,0.015,0.738,0.045,1.206c0.029,0.468,0.11,0.918,0.243,1.35c0.132,0.433,0.333,0.799,0.603,1.099
		c0.271,0.3,0.651,0.45,1.144,0.45c0.479,0,0.857-0.15,1.134-0.45c0.275-0.3,0.479-0.666,0.612-1.099
		c0.132-0.432,0.213-0.882,0.242-1.35c0.03-0.468,0.045-0.87,0.045-1.206s-0.015-0.737-0.045-1.206
		c-0.029-0.468-0.11-0.918-0.242-1.35c-0.133-0.432-0.337-0.799-0.612-1.098c-0.276-0.301-0.654-0.451-1.134-0.451
		c-0.492,0-0.873,0.15-1.144,0.451c-0.27,0.299-0.471,0.666-0.603,1.098c-0.133,0.432-0.214,0.882-0.243,1.35
		C1322.177,22.463,1322.162,22.864,1322.162,23.2z"/>
	<path fill="#FFFFFF" d="M1344.985,29.572h-2.483V28.42h-0.036c-0.108,0.156-0.249,0.315-0.423,0.478
		c-0.174,0.161-0.378,0.31-0.612,0.44c-0.233,0.133-0.492,0.24-0.773,0.324c-0.282,0.084-0.573,0.126-0.873,0.126
		c-0.648,0-1.236-0.11-1.765-0.333c-0.528-0.222-0.98-0.533-1.358-0.936s-0.669-0.879-0.873-1.432
		c-0.204-0.551-0.307-1.158-0.307-1.817c0-0.612,0.093-1.197,0.279-1.755c0.186-0.559,0.45-1.053,0.792-1.485
		s0.759-0.776,1.251-1.035c0.492-0.258,1.05-0.387,1.674-0.387c0.564,0,1.089,0.087,1.575,0.261s0.885,0.471,1.197,0.891h0.036
		v-5.795h2.699V29.572z M1342.502,25.198c0-0.659-0.189-1.194-0.567-1.603c-0.378-0.407-0.909-0.611-1.593-0.611
		s-1.215,0.204-1.593,0.611c-0.378,0.408-0.567,0.943-0.567,1.603c0,0.66,0.189,1.194,0.567,1.603s0.909,0.611,1.593,0.611
		s1.215-0.203,1.593-0.611S1342.502,25.858,1342.502,25.198z"/>
	<path fill="#FFFFFF" d="M1352.636,28.475h-0.036c-0.3,0.468-0.699,0.804-1.197,1.008c-0.498,0.203-1.022,0.306-1.574,0.306
		c-0.408,0-0.802-0.058-1.18-0.171s-0.711-0.285-0.999-0.513s-0.516-0.511-0.684-0.847s-0.252-0.726-0.252-1.17
		c0-0.504,0.093-0.93,0.278-1.277c0.187-0.348,0.438-0.637,0.757-0.864c0.317-0.228,0.681-0.405,1.089-0.531
		c0.407-0.126,0.831-0.219,1.269-0.278c0.438-0.061,0.876-0.096,1.314-0.108c0.438-0.012,0.843-0.019,1.215-0.019
		c0-0.479-0.171-0.86-0.513-1.143c-0.343-0.281-0.747-0.423-1.216-0.423c-0.443,0-0.849,0.093-1.215,0.278
		c-0.366,0.188-0.692,0.441-0.98,0.766l-1.44-1.477c0.504-0.467,1.092-0.818,1.765-1.053c0.672-0.234,1.367-0.351,2.088-0.351
		c0.792,0,1.442,0.099,1.952,0.297c0.511,0.198,0.919,0.489,1.225,0.873s0.519,0.854,0.639,1.413
		c0.12,0.558,0.181,1.203,0.181,1.936v4.445h-2.484V28.475z M1351.97,25.738c-0.204,0-0.459,0.009-0.765,0.027
		c-0.307,0.018-0.601,0.068-0.883,0.152c-0.281,0.084-0.521,0.211-0.72,0.379s-0.297,0.401-0.297,0.701
		c0,0.324,0.138,0.564,0.414,0.721c0.275,0.156,0.563,0.233,0.864,0.233c0.264,0,0.519-0.036,0.765-0.108
		c0.246-0.071,0.465-0.174,0.657-0.306c0.191-0.132,0.345-0.3,0.459-0.504c0.113-0.204,0.171-0.444,0.171-0.72v-0.576H1351.97z"/>
	<path fill="#FFFFFF" d="M1361.852,30.994c-0.181,0.469-0.354,0.883-0.522,1.242s-0.381,0.663-0.639,0.909
		c-0.259,0.245-0.585,0.432-0.981,0.558c-0.396,0.126-0.918,0.189-1.565,0.189c-0.696,0-1.368-0.108-2.017-0.324l0.36-2.214
		c0.407,0.18,0.828,0.27,1.26,0.27c0.3,0,0.546-0.032,0.738-0.099c0.191-0.066,0.351-0.162,0.477-0.288s0.231-0.278,0.315-0.459
		s0.174-0.39,0.27-0.63l0.198-0.504l-3.834-8.82h2.916l2.25,5.777h0.036l1.926-5.777h2.772L1361.852,30.994z"/>
	<path fill="#FFFFFF" d="M1371.77,23.398c-0.396-0.492-0.918-0.738-1.566-0.738c-0.228,0-0.449,0.055-0.666,0.162
		c-0.216,0.107-0.323,0.294-0.323,0.559c0,0.215,0.11,0.375,0.333,0.477c0.222,0.102,0.504,0.191,0.846,0.27
		s0.708,0.162,1.098,0.252s0.756,0.231,1.099,0.424c0.342,0.191,0.623,0.453,0.846,0.783c0.222,0.33,0.333,0.771,0.333,1.322
		c0,0.564-0.123,1.029-0.369,1.395c-0.246,0.367-0.562,0.66-0.945,0.883c-0.384,0.222-0.815,0.378-1.296,0.468
		c-0.479,0.09-0.954,0.135-1.422,0.135c-0.612,0-1.23-0.087-1.854-0.261c-0.624-0.174-1.152-0.482-1.584-0.928l1.638-1.817
		c0.252,0.312,0.531,0.549,0.837,0.711s0.663,0.243,1.071,0.243c0.312,0,0.594-0.045,0.846-0.135s0.378-0.255,0.378-0.495
		c0-0.228-0.111-0.399-0.333-0.513c-0.222-0.114-0.504-0.211-0.846-0.289c-0.342-0.077-0.708-0.162-1.099-0.252
		c-0.39-0.09-0.756-0.225-1.098-0.404s-0.624-0.436-0.846-0.766c-0.223-0.33-0.333-0.771-0.333-1.322
		c0-0.516,0.104-0.96,0.314-1.332s0.486-0.678,0.828-0.918s0.735-0.417,1.18-0.531c0.443-0.113,0.894-0.171,1.35-0.171
		c0.576,0,1.158,0.084,1.746,0.252s1.086,0.468,1.494,0.899L1371.77,23.398z"/>
</g>
<g>
	<path fill="#FFFFFF" d="M77.732,21.868L72.026,24.1v0.037l5.706,2.231v2.448l-9.108-3.564v-2.268l9.108-3.564V21.868z"/>
	<path fill="#FFFFFF" d="M84.356,19.852l-2.557,2.25l-1.529-1.764l4.157-3.51h2.521v12.744h-2.592V19.852z"/>
	<path fill="#FFFFFF" d="M90.71,26.711l4.95-4.447c0.252-0.227,0.504-0.485,0.756-0.773s0.378-0.624,0.378-1.008
		c0-0.432-0.156-0.771-0.468-1.018c-0.312-0.246-0.679-0.369-1.099-0.369c-0.504,0-0.896,0.156-1.179,0.469
		s-0.441,0.695-0.477,1.152l-2.7-0.199c0.036-0.659,0.174-1.232,0.414-1.719c0.239-0.485,0.558-0.891,0.954-1.215
		c0.396-0.324,0.86-0.566,1.395-0.729s1.113-0.243,1.737-0.243c0.576,0,1.116,0.081,1.62,0.243s0.941,0.402,1.313,0.72
		c0.372,0.318,0.663,0.718,0.873,1.197s0.315,1.038,0.315,1.674c0,0.408-0.042,0.776-0.126,1.106s-0.201,0.631-0.352,0.9
		s-0.327,0.52-0.53,0.747c-0.205,0.228-0.427,0.45-0.666,0.666l-3.87,3.33h5.651v2.376H90.71V26.711z"/>
	<path fill="#FFFFFF" d="M104.138,15.965v6.047h0.036c0.06-0.168,0.162-0.336,0.306-0.504c0.145-0.168,0.318-0.317,0.522-0.449
		c0.203-0.133,0.443-0.24,0.72-0.324c0.275-0.084,0.576-0.126,0.9-0.126c0.684,0,1.235,0.104,1.655,0.315
		c0.42,0.209,0.747,0.5,0.981,0.873c0.233,0.371,0.393,0.81,0.477,1.313s0.126,1.05,0.126,1.638v4.824h-2.699v-4.284
		c0-0.252-0.01-0.513-0.027-0.782c-0.019-0.271-0.072-0.52-0.162-0.748c-0.09-0.228-0.229-0.414-0.414-0.558
		c-0.187-0.144-0.453-0.216-0.801-0.216c-0.349,0-0.63,0.062-0.846,0.189c-0.217,0.125-0.382,0.293-0.495,0.504
		c-0.114,0.209-0.189,0.447-0.226,0.711s-0.054,0.539-0.054,0.828v4.355h-2.7V15.965H104.138z"/>
</g>
<g>
</g>
<g>
</g>
<g>
</g>
<g>
</g>
<g>
</g>
<g>
</g>
<g>
</g>
<g>
</g>
<g>
</g>
<g>
</g>
<g>
</g>
<g>
</g>
<g>
</g>
<g>
</g>
<g>
</g>
</svg>
