<?xml version="1.0" encoding="utf-8"?>
<!-- Generator: Adobe Illustrator 17.0.0, SVG Export Plug-In . SVG Version: 6.00 Build 0)  -->
<!DOCTYPE svg PUBLIC "-//W3C//DTD SVG 1.1//EN" "http://www.w3.org/Graphics/SVG/1.1/DTD/svg11.dtd">
<svg version="1.1" id="Layer_1" xmlns="http://www.w3.org/2000/svg" xmlns:xlink="http://www.w3.org/1999/xlink" x="0px" y="0px"
	 width="1418.853px" height="412.842px" viewBox="0 0 1418.853 412.842" enable-background="new 0 0 1418.853 412.842"
	 xml:space="preserve">
<path id="Oil_price__x28_Real_US_x24__x2C__2015_x29_" fill="none" stroke="#AAAAAA" stroke-width="4" stroke-linecap="round" stroke-linejoin="round" stroke-miterlimit="10" d="
	M32.353,403.042l9-36.06l9-107.34l9-185.01l9,60.54l9,124.83l9,59.16l9-71.46l9-0.54l9-22.62l9-40.71l9,41.61l9,107.64l9,35.13
	l9-13.89l9-83.64l9,9.36l9,74.01l9,22.11l9-4.35l9,6.63l9,5.91l9-18.81l9,9.81l9-3.15l9,13.44l9,3.18l9-16.62l9-4.77l9,5.55l9,15.84
	l9,8.7l9-6.33l9-18.39l9-47.19l9,15.39l9,33.36l9-10.26l9-32.49l9,8.55l9,19.65l9,16.32l9-8.7l9,6.33l9,19.02l9-8.7l9,2.82l9-2.04
	l9,1.56l9,8.85h9l9-7.95l9-11.49l9,10.29l9,12.15l9-25.92l9-14.55l9-7.11l9,10.86l9-25.89l9,39.39l9,0.6l9,12.06l9-3.63l9-8.58
	l9-7.05l9,21.78l9,4.35l9-4.05l9,2.1l9,19.71l9-14.61l9,8.31l9-15.66l9,2.64l9-5.67l9-2.46l9,1.65l9,4.68l9,0.36l9-3.27l9,3.12
	l9,2.49l9,0.42l9,7.2l9,0.6l9-18.99l9,1.56l9,5.61l9,2.43l9,3.57l9,1.02l9-5.34l9,0.18l9-0.18l9,0.72l9,2.49l9-3.03l9,0.33l9,5.04
	l9,2.76l9,0.39l9,0.54l9,0.54l9,0.63l9,1.08l9,1.14l9,1.5l9,1.83l9,1.83l9-6.18l9-2.7l9-10.2l9-111.18l9,14.16l9-2.31l9-1.38l9,7.71
	l9-141.51l9-13.71l9,38.58l9,32.88l9,27.45l9,11.58l9,9.81l9,87.03l9-22.47l9,25.92l9-14.79l9-24.69l9,24.33l9,6.54l9,13.98l9,7.5
	l9-3.27l9-14.13l9,8.82l9,28.77l9-20.73l9-41.7l9,19.95l9-0.75l9-12.81l9-32.61l9-54.48l9-31.2l9-18.57l9-70.95l9,114.6l9-53.94
	l9-90.45l9,6.06l9,13.92l9,33.54l9,138.72"/>
<g>
	<path fill="#AAAAAA" d="M1276.972,29.736l13.632-13.536c0.48-0.448,0.943-0.936,1.393-1.464c0.447-0.528,0.847-1.08,1.199-1.656
		c0.353-0.576,0.632-1.184,0.841-1.824c0.207-0.64,0.312-1.312,0.312-2.016c0-0.832-0.152-1.584-0.456-2.256
		c-0.305-0.672-0.72-1.24-1.248-1.704c-0.528-0.463-1.152-0.823-1.872-1.08c-0.72-0.256-1.48-0.384-2.28-0.384
		c-1.664,0-3.04,0.464-4.128,1.392c-1.088,0.928-1.775,2.208-2.063,3.84l-4.992-0.432c0.224-1.503,0.664-2.808,1.32-3.912
		c0.655-1.104,1.472-2.023,2.447-2.76c0.977-0.736,2.096-1.279,3.36-1.632c1.264-0.352,2.632-0.528,4.104-0.528
		c1.471,0,2.855,0.2,4.151,0.6c1.296,0.4,2.432,0.992,3.408,1.776c0.976,0.785,1.744,1.76,2.304,2.928
		c0.56,1.168,0.841,2.537,0.841,4.104c0,1.121-0.169,2.168-0.505,3.144c-0.336,0.977-0.775,1.896-1.319,2.76
		c-0.545,0.864-1.169,1.68-1.872,2.448c-0.704,0.768-1.44,1.52-2.208,2.256l-11.185,10.8h17.089v4.032h-22.272V29.736z"/>
	<path fill="#AAAAAA" d="M1303.084,17.64c0-1.248,0.063-2.544,0.192-3.888c0.127-1.344,0.359-2.664,0.695-3.96
		c0.337-1.296,0.784-2.536,1.345-3.72c0.56-1.184,1.279-2.215,2.16-3.096c0.879-0.88,1.92-1.584,3.119-2.112
		c1.2-0.528,2.6-0.792,4.2-0.792c1.6,0,3,0.264,4.2,0.792s2.239,1.232,3.12,2.112c0.88,0.88,1.6,1.912,2.16,3.096
		c0.56,1.184,1.008,2.424,1.344,3.72c0.336,1.296,0.567,2.616,0.696,3.96c0.127,1.344,0.191,2.64,0.191,3.888
		c0,1.792-0.16,3.713-0.479,5.76c-0.32,2.048-0.912,3.953-1.776,5.712c-0.864,1.76-2.057,3.216-3.576,4.368
		c-1.52,1.152-3.479,1.728-5.88,1.728c-2.399,0-4.36-0.576-5.88-1.728c-1.521-1.152-2.712-2.608-3.576-4.368
		c-0.863-1.759-1.456-3.664-1.775-5.712C1303.245,21.353,1303.084,19.432,1303.084,17.64z M1307.693,17.64
		c0,1.121,0.071,2.448,0.216,3.984c0.144,1.536,0.456,3.016,0.936,4.44c0.48,1.424,1.192,2.632,2.137,3.624
		c0.943,0.992,2.215,1.488,3.815,1.488c1.6,0,2.872-0.496,3.816-1.488c0.943-0.992,1.656-2.2,2.136-3.624
		c0.48-1.424,0.792-2.904,0.937-4.44c0.144-1.536,0.216-2.864,0.216-3.984c0-0.768-0.024-1.639-0.072-2.616
		c-0.048-0.976-0.16-1.968-0.336-2.976c-0.177-1.008-0.425-1.984-0.744-2.928c-0.32-0.943-0.744-1.792-1.271-2.544
		c-0.528-0.751-1.177-1.352-1.944-1.8c-0.769-0.448-1.68-0.672-2.736-0.672c-1.056,0-1.968,0.224-2.735,0.672
		c-0.769,0.448-1.416,1.048-1.944,1.8c-0.528,0.752-0.952,1.601-1.272,2.544c-0.32,0.944-0.568,1.92-0.743,2.928
		c-0.177,1.008-0.288,2-0.337,2.976C1307.716,16,1307.693,16.872,1307.693,17.64z"/>
	<path fill="#AAAAAA" d="M1329.772,17.64c0-1.248,0.063-2.544,0.192-3.888c0.127-1.344,0.359-2.664,0.695-3.96
		c0.337-1.296,0.784-2.536,1.345-3.72c0.56-1.184,1.279-2.215,2.16-3.096c0.879-0.88,1.92-1.584,3.119-2.112
		c1.2-0.528,2.6-0.792,4.2-0.792c1.6,0,3,0.264,4.2,0.792s2.239,1.232,3.12,2.112c0.88,0.88,1.6,1.912,2.16,3.096
		c0.56,1.184,1.008,2.424,1.344,3.72c0.336,1.296,0.567,2.616,0.696,3.96c0.127,1.344,0.191,2.64,0.191,3.888
		c0,1.792-0.16,3.713-0.479,5.76c-0.32,2.048-0.912,3.953-1.776,5.712c-0.864,1.76-2.057,3.216-3.576,4.368
		c-1.52,1.152-3.479,1.728-5.88,1.728c-2.399,0-4.36-0.576-5.88-1.728c-1.521-1.152-2.712-2.608-3.576-4.368
		c-0.863-1.759-1.456-3.664-1.775-5.712C1329.932,21.353,1329.772,19.432,1329.772,17.64z M1334.38,17.64
		c0,1.121,0.071,2.448,0.216,3.984c0.144,1.536,0.456,3.016,0.936,4.44c0.48,1.424,1.192,2.632,2.137,3.624
		c0.943,0.992,2.215,1.488,3.815,1.488c1.6,0,2.872-0.496,3.816-1.488c0.943-0.992,1.656-2.2,2.136-3.624
		c0.48-1.424,0.792-2.904,0.937-4.44c0.144-1.536,0.216-2.864,0.216-3.984c0-0.768-0.024-1.639-0.072-2.616
		c-0.048-0.976-0.16-1.968-0.336-2.976c-0.177-1.008-0.425-1.984-0.744-2.928c-0.32-0.943-0.744-1.792-1.271-2.544
		c-0.528-0.751-1.177-1.352-1.944-1.8c-0.769-0.448-1.68-0.672-2.736-0.672c-1.056,0-1.968,0.224-2.735,0.672
		c-0.769,0.448-1.416,1.048-1.944,1.8c-0.528,0.752-0.952,1.601-1.272,2.544c-0.32,0.944-0.568,1.92-0.743,2.928
		c-0.177,1.008-0.288,2-0.337,2.976C1334.404,16,1334.38,16.872,1334.38,17.64z"/>
	<path fill="#AAAAAA" d="M1361.931,26.328c0.542,1.632,1.268,2.849,2.176,3.648c0.909,0.8,2.256,1.2,4.041,1.2
		c0.893,0,1.729-0.151,2.511-0.456c0.78-0.304,1.474-0.72,2.08-1.248c0.605-0.528,1.083-1.167,1.435-1.92
		c0.351-0.751,0.526-1.591,0.526-2.52c0-1.408-0.296-2.536-0.888-3.384c-0.593-0.848-1.353-1.488-2.28-1.92
		c-0.929-0.432-1.952-0.712-3.072-0.84c-1.12-0.127-2.225-0.192-3.312-0.192v-4.032c1.759,0,3.199-0.12,4.319-0.36
		c1.12-0.24,2-0.583,2.641-1.032c0.64-0.448,1.087-1.008,1.344-1.68c0.256-0.672,0.384-1.423,0.384-2.256
		c0-1.824-0.544-3.2-1.632-4.128c-1.088-0.928-2.448-1.392-4.08-1.392c-1.248,0-2.376,0.36-3.384,1.08
		c-1.008,0.72-1.769,1.672-2.28,2.856l-4.704-1.584c0.896-2.176,2.264-3.784,4.104-4.824c1.84-1.04,3.896-1.56,6.168-1.56
		c1.375,0,2.695,0.185,3.96,0.552c1.264,0.368,2.376,0.936,3.336,1.704c0.96,0.768,1.72,1.736,2.28,2.904
		c0.56,1.168,0.84,2.537,0.84,4.104c0,1.792-0.536,3.392-1.608,4.8c-1.072,1.409-2.472,2.369-4.2,2.88v0.096
		c1.057,0.192,2,0.544,2.832,1.056c0.832,0.512,1.536,1.152,2.112,1.92s1.008,1.625,1.296,2.568c0.288,0.944,0.433,1.944,0.433,3
		c0,1.632-0.312,3.064-0.937,4.296s-1.456,2.256-2.496,3.072s-2.24,1.433-3.6,1.848c-1.36,0.416-2.793,0.624-4.296,0.624
		c-2.593,0-4.872-0.592-6.841-1.776c-1.968-1.183-3.336-3.055-4.104-5.616L1361.931,26.328z"/>
</g>
<g>
	<path fill="#AAAAAA" d="M12.96,5.928l-6.24,5.76L4.032,8.472l9.456-7.824h4.08v33.984H12.96V5.928z"/>
	<path fill="#AAAAAA" d="M40.032,35.208c-1.536,0-2.984-0.233-4.344-0.696c-1.36-0.463-2.536-1.144-3.528-2.04
		c-0.992-0.896-1.775-1.983-2.352-3.264c-0.576-1.28-0.864-2.72-0.864-4.32c0-1.056,0.168-2.032,0.504-2.928
		c0.336-0.896,0.792-1.704,1.368-2.424c0.576-0.72,1.256-1.327,2.04-1.824c0.784-0.496,1.64-0.872,2.568-1.128V16.44
		c-0.641-0.16-1.28-0.448-1.92-0.864c-0.641-0.416-1.209-0.943-1.704-1.584c-0.497-0.64-0.905-1.416-1.225-2.328
		c-0.32-0.912-0.479-1.96-0.479-3.144c0-1.28,0.264-2.44,0.792-3.48c0.527-1.04,1.248-1.928,2.16-2.664
		c0.912-0.736,1.968-1.304,3.168-1.704c1.199-0.4,2.472-0.6,3.815-0.6c1.345,0,2.616,0.2,3.816,0.6c1.2,0.4,2.256,0.968,3.168,1.704
		C47.929,3.112,48.648,4,49.177,5.04c0.527,1.04,0.792,2.2,0.792,3.48c0,1.184-0.161,2.232-0.48,3.144
		c-0.32,0.912-0.729,1.688-1.224,2.328c-0.497,0.641-1.064,1.168-1.704,1.584c-0.641,0.417-1.28,0.705-1.92,0.864v0.144
		c0.928,0.256,1.783,0.632,2.567,1.128c0.784,0.497,1.465,1.104,2.04,1.824c0.576,0.72,1.032,1.529,1.368,2.424
		c0.336,0.896,0.504,1.872,0.504,2.928c0,1.601-0.288,3.041-0.863,4.32c-0.576,1.28-1.361,2.368-2.353,3.264
		c-0.992,0.896-2.168,1.577-3.527,2.04C43.016,34.975,41.568,35.208,40.032,35.208z M40.032,31.176c1.92,0,3.48-0.583,4.681-1.752
		c1.199-1.168,1.8-2.68,1.8-4.536c0-1.023-0.168-1.927-0.504-2.712c-0.336-0.784-0.801-1.44-1.393-1.968
		c-0.592-0.528-1.28-0.928-2.063-1.2c-0.785-0.271-1.625-0.408-2.521-0.408c-1.889,0.033-3.44,0.632-4.655,1.8
		c-1.217,1.168-1.824,2.664-1.824,4.488c0,0.992,0.175,1.88,0.527,2.664c0.353,0.785,0.824,1.44,1.416,1.968
		c0.592,0.528,1.28,0.936,2.064,1.224C38.344,31.032,39.169,31.176,40.032,31.176z M34.704,9.192c0,0.672,0.12,1.328,0.36,1.968
		c0.24,0.641,0.584,1.208,1.032,1.704c0.447,0.497,1,0.905,1.656,1.224c0.655,0.32,1.416,0.48,2.279,0.48
		c0.896,0,1.672-0.151,2.328-0.456c0.655-0.304,1.208-0.704,1.656-1.2c0.447-0.496,0.783-1.063,1.008-1.704
		c0.224-0.64,0.336-1.312,0.336-2.016c0-1.567-0.488-2.856-1.464-3.864c-0.977-1.008-2.265-1.512-3.864-1.512
		c-1.472,0-2.729,0.497-3.768,1.488C35.225,6.296,34.704,7.592,34.704,9.192z"/>
	<path fill="#AAAAAA" d="M63.936,13.8h0.192c1.056-0.511,2.304-0.768,3.744-0.768c1.216,0,2.448,0.208,3.696,0.624
		c1.248,0.417,2.376,1.064,3.384,1.944c1.008,0.881,1.831,2,2.472,3.36c0.64,1.36,0.96,2.968,0.96,4.824
		c0,1.889-0.312,3.544-0.936,4.968c-0.624,1.424-1.464,2.616-2.521,3.576c-1.056,0.96-2.288,1.68-3.695,2.16
		c-1.409,0.48-2.913,0.72-4.513,0.72c-1.601,0-3.104-0.257-4.512-0.768c-1.408-0.512-2.64-1.248-3.696-2.208
		c-1.056-0.96-1.896-2.112-2.52-3.456c-0.624-1.344-0.937-2.848-0.937-4.512c0-1.056,0.08-2.016,0.24-2.88
		c0.16-0.864,0.392-1.688,0.696-2.472c0.304-0.784,0.663-1.552,1.08-2.304c0.415-0.751,0.88-1.543,1.392-2.376l8.592-13.584h5.424
		L63.936,13.8z M59.664,24.12c0,1.025,0.168,1.968,0.504,2.832c0.336,0.864,0.816,1.608,1.44,2.232
		c0.624,0.624,1.367,1.112,2.231,1.464c0.864,0.353,1.824,0.528,2.88,0.528c1.057,0,2.017-0.175,2.88-0.528
		c0.864-0.352,1.608-0.84,2.232-1.464c0.624-0.624,1.104-1.368,1.44-2.232c0.336-0.864,0.504-1.807,0.504-2.832
		c0-1.023-0.168-1.968-0.504-2.832c-0.337-0.864-0.816-1.608-1.44-2.232s-1.368-1.111-2.232-1.464
		c-0.863-0.352-1.823-0.528-2.88-0.528c-1.056,0-2.016,0.176-2.88,0.528c-0.864,0.353-1.607,0.84-2.231,1.464
		s-1.104,1.368-1.44,2.232C59.832,22.152,59.664,23.096,59.664,24.12z"/>
	<path fill="#AAAAAA" d="M93.023,5.928l-6.24,5.76l-2.688-3.216l9.456-7.824h4.08v33.984h-4.608V5.928z"/>
</g>
<circle fill="#AAAAAA" cx="1328.353" cy="254.532" r="13.615"/>
<circle fill="#AAAAAA" cx="32.353" cy="399.532" r="13.615"/>
<g>
</g>
<g>
</g>
<g>
</g>
<g>
</g>
<g>
</g>
<g>
</g>
<g>
</g>
<g>
</g>
<g>
</g>
<g>
</g>
<g>
</g>
<g>
</g>
<g>
</g>
<g>
</g>
<g>
</g>
</svg>
