<?xml version="1.0" encoding="utf-8"?>
<!-- Generator: Adobe Illustrator 17.0.0, SVG Export Plug-In . SVG Version: 6.00 Build 0)  -->
<!DOCTYPE svg PUBLIC "-//W3C//DTD SVG 1.1//EN" "http://www.w3.org/Graphics/SVG/1.1/DTD/svg11.dtd">
<svg version="1.1" id="Layer_1" xmlns="http://www.w3.org/2000/svg" xmlns:xlink="http://www.w3.org/1999/xlink" x="0px" y="0px"
	 width="47.001px" height="52.001px" viewBox="0 0 47.001 52.001" enable-background="new 0 0 47.001 52.001" xml:space="preserve">
<g>
	<path fill="#cccccc" d="M45.244,41.758L31.455,26.001l13.788-15.758c2.343-2.344,2.343-6.143,0-8.486c-2.345-2.343-6.144-2.342-8.486,0.001
		L23.5,16.909L10.244,1.758C7.901-0.585,4.102-0.586,1.757,1.757c-2.343,2.344-2.343,6.142,0,8.486l13.788,15.758L1.757,41.758
		c-2.343,2.343-2.343,6.142-0.001,8.485c2.344,2.344,6.143,2.344,8.487,0L23.5,35.091l13.257,15.152
		c2.345,2.344,6.144,2.344,8.487,0C47.586,47.899,47.586,44.1,45.244,41.758z"/>
</g>
</svg>
