<?xml version="1.0" encoding="utf-8"?>
<!-- Generator: Adobe Illustrator 17.0.0, SVG Export Plug-In . SVG Version: 6.00 Build 0)  -->
<!DOCTYPE svg PUBLIC "-//W3C//DTD SVG 1.1//EN" "http://www.w3.org/Graphics/SVG/1.1/DTD/svg11.dtd">
<svg version="1.1" id="Layer_1" xmlns="http://www.w3.org/2000/svg" xmlns:xlink="http://www.w3.org/1999/xlink" x="0px" y="0px"
	 width="439.732px" height="66.603px" viewBox="0 0 439.732 66.603" enable-background="new 0 0 439.732 66.603"
	 xml:space="preserve">
<g>
	<path d="M6.564,6.146H0.866c-0.24,0-0.447-0.082-0.62-0.246C0.082,5.737,0,5.535,0,5.294c0-0.24,0.082-0.442,0.246-0.606
		c0.173-0.173,0.38-0.259,0.62-0.259H13.98c0.24,0,0.442,0.086,0.606,0.259c0.173,0.164,0.26,0.366,0.26,0.606
		c0,0.241-0.087,0.443-0.26,0.606c-0.164,0.164-0.366,0.246-0.606,0.246H8.281v18.105c0,0.241-0.082,0.447-0.245,0.621
		c-0.173,0.164-0.38,0.245-0.621,0.245c-0.23,0-0.433-0.082-0.606-0.245c-0.164-0.173-0.245-0.38-0.245-0.621V6.146z"/>
	<path d="M20.111,24.251c0,0.241-0.086,0.442-0.26,0.606c-0.164,0.173-0.366,0.26-0.606,0.26s-0.442-0.086-0.606-0.26
		c-0.173-0.164-0.26-0.365-0.26-0.606V5.353c0-0.241,0.087-0.442,0.26-0.606c0.164-0.173,0.366-0.26,0.606-0.26
		s0.442,0.086,0.606,0.26c0.173,0.164,0.26,0.365,0.26,0.606V24.251z"/>
	<path d="M27.686,24.251c0,0.241-0.082,0.447-0.245,0.621c-0.173,0.164-0.375,0.245-0.606,0.245c-0.241,0-0.447-0.082-0.62-0.245
		c-0.164-0.173-0.246-0.38-0.246-0.621V5.338c0-0.433,0.211-0.707,0.635-0.822c0.414-0.116,0.736,0.014,0.967,0.39l8.599,14.21
		l8.598-14.21c0.231-0.375,0.553-0.505,0.967-0.39c0.423,0.115,0.635,0.39,0.635,0.822v18.914c0,0.241-0.086,0.447-0.26,0.621
		c-0.164,0.164-0.366,0.245-0.606,0.245c-0.231,0-0.433-0.082-0.606-0.245c-0.164-0.173-0.245-0.38-0.245-0.621V8.425l-7.748,12.796
		l-0.014,0.015v0.015c-0.02,0.019-0.039,0.043-0.058,0.072c-0.029,0.029-0.048,0.048-0.058,0.058
		c-0.019,0.02-0.038,0.039-0.058,0.058c-0.029,0.019-0.053,0.039-0.072,0.058c-0.048,0.029-0.058,0.034-0.029,0.014
		c0.01-0.009-0.005-0.004-0.043,0.015c-0.029,0.02-0.058,0.034-0.086,0.043c-0.02,0.009-0.043,0.019-0.072,0.029
		s-0.058,0.014-0.086,0.014c-0.02,0.01-0.043,0.015-0.072,0.015c-0.029,0.01-0.058,0.014-0.086,0.014
		c-0.029,0-0.058-0.004-0.087-0.014c-0.029,0-0.053-0.005-0.072-0.015c-0.029,0-0.058-0.004-0.087-0.014s-0.053-0.02-0.072-0.029
		c-0.029-0.01-0.058-0.024-0.086-0.043c-0.01,0-0.019,0-0.029,0c0-0.009-0.005-0.015-0.014-0.015
		c0.029,0.02,0.019,0.015-0.029-0.014c-0.019-0.019-0.043-0.039-0.072-0.058c-0.02-0.02-0.039-0.039-0.058-0.058
		c-0.02-0.019-0.039-0.038-0.058-0.058c-0.019-0.029-0.039-0.053-0.058-0.072v-0.015l-0.014-0.015L27.686,8.425V24.251z"/>
	<path d="M53.005,25.117c-0.241,0-0.442-0.086-0.606-0.26c-0.173-0.164-0.26-0.365-0.26-0.606V5.266c0-0.24,0.086-0.442,0.26-0.606
		c0.173-0.183,0.375-0.269,0.606-0.26L64.46,4.429c0.24,0,0.442,0.086,0.606,0.259c0.173,0.173,0.259,0.375,0.259,0.606
		c0,0.241-0.086,0.447-0.259,0.621C64.902,6.079,64.7,6.16,64.46,6.16L53.871,6.131v7.762h7.92c0.24,0,0.442,0.086,0.606,0.26
		c0.173,0.164,0.259,0.366,0.259,0.606s-0.086,0.442-0.259,0.606c-0.164,0.173-0.366,0.26-0.606,0.26h-7.92v7.761H64.46
		c0.24,0,0.442,0.087,0.606,0.26c0.173,0.164,0.259,0.366,0.259,0.606c0,0.241-0.086,0.442-0.259,0.606
		c-0.164,0.173-0.366,0.26-0.606,0.26H53.005z"/>
	<path d="M70.505,4.472c0.23,0,0.433,0.086,0.606,0.26c0.163,0.164,0.245,0.366,0.245,0.606V23.4h9.363
		c0.241,0,0.442,0.082,0.606,0.245c0.173,0.173,0.26,0.375,0.26,0.606c0,0.241-0.086,0.447-0.26,0.621
		c-0.164,0.164-0.365,0.245-0.606,0.245H70.505c-0.241,0-0.447-0.082-0.621-0.245c-0.164-0.173-0.245-0.38-0.245-0.621V5.338
		c0-0.24,0.082-0.442,0.245-0.606C70.058,4.559,70.264,4.472,70.505,4.472z"/>
	<path d="M86.951,24.251c0,0.241-0.086,0.442-0.26,0.606c-0.164,0.173-0.366,0.26-0.606,0.26s-0.442-0.086-0.606-0.26
		c-0.173-0.164-0.26-0.365-0.26-0.606V5.353c0-0.241,0.087-0.442,0.26-0.606c0.164-0.173,0.366-0.26,0.606-0.26
		s0.442,0.086,0.606,0.26c0.173,0.164,0.26,0.365,0.26,0.606V24.251z"/>
	<path d="M107.755,24.814l-0.014-0.015l-0.015-0.015L94.525,7.776v16.476c0,0.241-0.086,0.442-0.26,0.606
		c-0.164,0.173-0.365,0.26-0.606,0.26c-0.24,0-0.442-0.086-0.605-0.26c-0.173-0.164-0.26-0.365-0.26-0.606v-19
		c0-0.414,0.192-0.688,0.577-0.822c0.394-0.135,0.716-0.039,0.966,0.288l13.215,17.01V5.251c0-0.24,0.082-0.442,0.245-0.606
		c0.173-0.173,0.375-0.26,0.606-0.26c0.24,0,0.447,0.086,0.62,0.26c0.164,0.164,0.246,0.366,0.246,0.606v19c0-0.019,0,0,0,0.058
		c0,0.029-0.005,0.058-0.015,0.087c0,0.019-0.005,0.043-0.014,0.072c-0.01,0.039-0.02,0.067-0.029,0.087
		c-0.009,0.019-0.019,0.043-0.029,0.072c-0.009,0.029-0.024,0.053-0.043,0.072c-0.01,0.02-0.024,0.043-0.043,0.072
		c-0.02,0.029-0.039,0.053-0.058,0.072c-0.01,0.009-0.029,0.029-0.058,0.058c-0.048,0.039-0.063,0.048-0.043,0.029
		c0.019-0.009,0.009,0-0.029,0.029c-0.01,0.01-0.024,0.02-0.043,0.029c-0.029,0.02-0.058,0.034-0.086,0.043
		c-0.02,0.01-0.039,0.019-0.058,0.029c-0.029,0.01-0.062,0.02-0.101,0.029c-0.029,0.01-0.048,0.014-0.058,0.014
		c-0.058,0.01-0.111,0.015-0.159,0.015c-0.058,0-0.116-0.005-0.173-0.015l-0.058-0.014c-0.048-0.019-0.086-0.034-0.115-0.043
		c-0.01-0.009-0.029-0.024-0.058-0.043c-0.039-0.02-0.072-0.039-0.101-0.058c-0.01-0.009-0.029-0.023-0.058-0.043
		c-0.029-0.029-0.043-0.043-0.043-0.043S107.784,24.843,107.755,24.814z"/>
	<path d="M115.574,25.117c-0.241,0-0.442-0.086-0.606-0.26c-0.173-0.164-0.26-0.365-0.26-0.606V5.266c0-0.24,0.086-0.442,0.26-0.606
		c0.173-0.183,0.375-0.269,0.606-0.26l11.455,0.029c0.24,0,0.442,0.086,0.606,0.259c0.173,0.173,0.259,0.375,0.259,0.606
		c0,0.241-0.086,0.447-0.259,0.621c-0.164,0.164-0.366,0.245-0.606,0.245L116.44,6.131v7.762h7.92c0.24,0,0.442,0.086,0.606,0.26
		c0.173,0.164,0.259,0.366,0.259,0.606s-0.086,0.442-0.259,0.606c-0.164,0.173-0.366,0.26-0.606,0.26h-7.92v7.761h10.589
		c0.24,0,0.442,0.087,0.606,0.26c0.173,0.164,0.259,0.366,0.259,0.606c0,0.241-0.086,0.442-0.259,0.606
		c-0.164,0.173-0.366,0.26-0.606,0.26H115.574z"/>
	<path d="M11.095,60.515c-2.847,0-5.28-1.01-7.3-3.03c-2.02-2.02-3.03-4.453-3.03-7.3c0-2.847,1.01-5.275,3.03-7.286
		c2.02-2.02,4.453-3.03,7.3-3.03c2.337,0,4.429,0.712,6.275,2.135c0.375,0.289,0.596,0.668,0.664,1.14
		c0.058,0.461-0.058,0.88-0.346,1.255c-0.289,0.375-0.664,0.591-1.125,0.649c-0.472,0.067-0.895-0.043-1.27-0.332
		c-1.241-0.952-2.64-1.429-4.198-1.429c-1.905,0-3.535,0.673-4.891,2.02c-1.347,1.356-2.02,2.981-2.02,4.876
		c0,1.904,0.673,3.534,2.02,4.891c1.356,1.347,2.986,2.02,4.891,2.02c1.779,0,3.328-0.601,4.646-1.803
		c0.019-0.019,0.053-0.048,0.101-0.086l0.015-3.78h-5.641c-0.481,0-0.885-0.164-1.212-0.491c-0.336-0.336-0.505-0.741-0.505-1.212
		s0.168-0.875,0.505-1.212c0.327-0.336,0.731-0.505,1.212-0.505h7.358c0.471,0,0.875,0.168,1.212,0.505
		c0.336,0.337,0.505,0.741,0.505,1.212l-0.043,9.147c0,0.471-0.168,0.87-0.505,1.197c-0.327,0.337-0.726,0.505-1.197,0.505h-0.015
		c-0.385,0-0.731-0.12-1.039-0.361c-0.298-0.23-0.496-0.524-0.591-0.88C14.389,60.121,12.787,60.515,11.095,60.515z"/>
	<path d="M36.63,57.154c0.471,0,0.87,0.168,1.197,0.505c0.336,0.336,0.505,0.741,0.505,1.212s-0.168,0.87-0.505,1.197
		c-0.327,0.337-0.727,0.505-1.197,0.505H26.185c-0.471,0-0.871-0.168-1.197-0.505c-0.337-0.327-0.505-0.726-0.505-1.197V41.572
		c0-0.48,0.168-0.885,0.505-1.211c0.327-0.337,0.726-0.505,1.197-0.505H26.2l10.431,0.029c0.471,0,0.875,0.168,1.211,0.505
		c0.327,0.336,0.491,0.741,0.491,1.212s-0.168,0.87-0.505,1.197c-0.327,0.337-0.727,0.505-1.197,0.505h-0.015l-8.714-0.029v5.237
		h6.29c0.471,0,0.875,0.164,1.212,0.491c0.336,0.337,0.505,0.741,0.505,1.212s-0.168,0.875-0.505,1.212
		c-0.337,0.327-0.741,0.49-1.212,0.49h-6.29v5.237H36.63z"/>
	<path d="M46.815,43.26h-4.285c-0.472,0-0.875-0.168-1.212-0.505c-0.327-0.327-0.491-0.726-0.491-1.197s0.164-0.871,0.491-1.197
		c0.336-0.337,0.74-0.505,1.212-0.505H54.52c0.461,0,0.86,0.168,1.197,0.505c0.327,0.327,0.491,0.726,0.491,1.197
		s-0.164,0.871-0.491,1.197c-0.337,0.337-0.736,0.505-1.197,0.505H50.22v15.61c0,0.471-0.168,0.875-0.505,1.211
		c-0.327,0.327-0.727,0.491-1.198,0.491s-0.871-0.164-1.197-0.491c-0.337-0.336-0.505-0.74-0.505-1.211V43.26z"/>
	<path d="M63.969,43.26h-4.285c-0.472,0-0.875-0.168-1.212-0.505c-0.327-0.327-0.491-0.726-0.491-1.197s0.164-0.871,0.491-1.197
		c0.336-0.337,0.74-0.505,1.212-0.505h11.989c0.461,0,0.86,0.168,1.197,0.505c0.327,0.327,0.491,0.726,0.491,1.197
		s-0.164,0.871-0.491,1.197c-0.337,0.337-0.736,0.505-1.197,0.505h-4.299v15.61c0,0.471-0.168,0.875-0.505,1.211
		c-0.327,0.327-0.727,0.491-1.198,0.491s-0.871-0.164-1.197-0.491c-0.337-0.336-0.505-0.74-0.505-1.211V43.26z"/>
	<path d="M78.844,60.573c-0.472,0-0.871-0.168-1.198-0.505c-0.337-0.327-0.505-0.726-0.505-1.197V41.659
		c0-0.471,0.168-0.871,0.505-1.198c0.327-0.336,0.726-0.505,1.198-0.505c0.471,0,0.87,0.168,1.197,0.505
		c0.336,0.327,0.505,0.727,0.505,1.198v17.211c0,0.471-0.168,0.87-0.505,1.197C79.714,60.405,79.314,60.573,78.844,60.573z"/>
	<path d="M100.57,59.923h-0.014v-0.014L90.183,46.564v12.307c0,0.471-0.168,0.87-0.505,1.197c-0.327,0.337-0.727,0.505-1.197,0.505
		c-0.472,0-0.871-0.168-1.198-0.505c-0.337-0.327-0.505-0.726-0.505-1.197V41.587c0-0.365,0.106-0.692,0.317-0.981
		c0.211-0.298,0.491-0.505,0.837-0.621c0.336-0.125,0.683-0.134,1.039-0.029c0.346,0.106,0.63,0.303,0.851,0.592l10.373,13.359
		V41.587c0-0.471,0.164-0.87,0.491-1.197c0.336-0.337,0.74-0.505,1.212-0.505c0.471,0,0.87,0.168,1.197,0.505
		c0.336,0.327,0.505,0.726,0.505,1.197v17.312c0,0.019-0.005,0.048-0.014,0.086c0,0.039,0,0.062,0,0.072
		c0,0.019-0.005,0.048-0.015,0.086c0,0.039-0.005,0.067-0.015,0.086l-0.014,0.072c-0.01,0.048-0.02,0.077-0.029,0.086
		c0,0.01-0.01,0.034-0.029,0.072c-0.01,0.039-0.02,0.067-0.029,0.086l-0.029,0.072l-0.043,0.072
		c-0.01,0.019-0.024,0.048-0.043,0.086l-0.043,0.043c-0.01,0.019-0.029,0.048-0.058,0.086l-0.043,0.058
		c-0.01,0.01-0.029,0.029-0.058,0.058c-0.029,0.039-0.048,0.058-0.058,0.058c0,0.01-0.019,0.029-0.058,0.058
		c-0.029,0.029-0.053,0.048-0.072,0.058c0.029-0.019,0.023-0.015-0.015,0.014l-0.015,0.015c-0.077,0.058-0.149,0.106-0.216,0.144
		h-0.014c-0.077,0.039-0.154,0.072-0.231,0.101c-0.039,0.02-0.048,0.024-0.029,0.015c-0.077,0.029-0.159,0.048-0.245,0.058
		l-0.043,0.014c-0.086,0.01-0.168,0.015-0.245,0.015c-0.058,0-0.121-0.005-0.188-0.015c0.019,0.01,0.009,0.01-0.029,0
		c-0.058-0.009-0.106-0.019-0.144-0.029c0.009,0.01-0.01,0.005-0.058-0.014c-0.048-0.01-0.086-0.019-0.116-0.029
		c-0.009,0-0.029-0.01-0.058-0.029c-0.048-0.01-0.086-0.024-0.115-0.043c-0.02,0-0.039-0.009-0.058-0.029
		c-0.039-0.019-0.072-0.034-0.101-0.043c-0.029-0.019-0.048-0.034-0.058-0.043c-0.029-0.02-0.063-0.043-0.101-0.072
		c-0.029-0.019-0.048-0.034-0.058-0.043c-0.048-0.038-0.092-0.077-0.13-0.115l-0.015-0.015v-0.014
		c-0.039-0.039-0.058-0.058-0.058-0.058S100.599,59.962,100.57,59.923z"/>
	<path d="M118.936,60.515c-2.847,0-5.28-1.01-7.3-3.03c-2.02-2.02-3.029-4.453-3.029-7.3c0-2.847,1.01-5.275,3.029-7.286
		c2.02-2.02,4.453-3.03,7.3-3.03c2.337,0,4.429,0.712,6.275,2.135c0.375,0.289,0.596,0.668,0.664,1.14
		c0.058,0.461-0.058,0.88-0.347,1.255c-0.289,0.375-0.664,0.591-1.125,0.649c-0.472,0.067-0.895-0.043-1.27-0.332
		c-1.241-0.952-2.64-1.429-4.198-1.429c-1.904,0-3.535,0.673-4.891,2.02c-1.347,1.356-2.02,2.981-2.02,4.876
		c0,1.904,0.673,3.534,2.02,4.891c1.356,1.347,2.986,2.02,4.891,2.02c1.779,0,3.328-0.601,4.646-1.803
		c0.019-0.019,0.053-0.048,0.101-0.086l0.015-3.78h-5.641c-0.481,0-0.885-0.164-1.211-0.491c-0.337-0.336-0.505-0.741-0.505-1.212
		s0.168-0.875,0.505-1.212c0.327-0.336,0.73-0.505,1.211-0.505h7.358c0.471,0,0.875,0.168,1.212,0.505
		c0.336,0.337,0.505,0.741,0.505,1.212l-0.043,9.147c0,0.471-0.168,0.87-0.505,1.197c-0.327,0.337-0.726,0.505-1.197,0.505h-0.015
		c-0.385,0-0.731-0.12-1.039-0.361c-0.298-0.23-0.496-0.524-0.591-0.88C122.23,60.121,120.628,60.515,118.936,60.515z"/>
	<path d="M148.828,60.573c-2.837,0-5.266-1.005-7.286-3.015c-2.01-2.02-3.015-4.448-3.015-7.286c0-2.847,1.005-5.275,3.015-7.286
		c2.02-2.02,4.448-3.03,7.286-3.03c2.337,0,4.434,0.712,6.291,2.135c0.365,0.289,0.582,0.664,0.649,1.125
		c0.058,0.471-0.058,0.895-0.346,1.27s-0.664,0.591-1.125,0.649c-0.471,0.058-0.894-0.053-1.27-0.332
		c-1.231-0.952-2.63-1.428-4.198-1.428c-1.895,0-3.515,0.673-4.862,2.02c-1.347,1.347-2.02,2.972-2.02,4.876
		c0,1.895,0.673,3.516,2.02,4.862c1.347,1.347,2.967,2.02,4.862,2.02c1.789,0,3.337-0.597,4.646-1.789
		c0.346-0.317,0.755-0.466,1.227-0.447c0.471,0.02,0.865,0.207,1.183,0.562c0.317,0.346,0.466,0.755,0.447,1.227
		c-0.019,0.471-0.202,0.865-0.548,1.183C153.811,59.678,151.492,60.573,148.828,60.573z"/>
	<path d="M162.909,39.885c0.471,0,0.87,0.168,1.197,0.505c0.336,0.327,0.505,0.726,0.505,1.197v15.581h7.632
		c0.471,0,0.875,0.168,1.212,0.505c0.327,0.327,0.491,0.727,0.491,1.198s-0.164,0.87-0.491,1.197
		c-0.337,0.337-0.741,0.505-1.212,0.505h-9.334c-0.472,0-0.871-0.168-1.198-0.505c-0.336-0.327-0.505-0.726-0.505-1.197V41.587
		c0-0.471,0.168-0.87,0.505-1.197C162.039,40.053,162.438,39.885,162.909,39.885z"/>
	<path d="M186.742,60.573c-2.856,0-5.294-1.015-7.314-3.044c-2.029-2.02-3.044-4.458-3.044-7.314s1.015-5.299,3.044-7.329
		c2.02-2.02,4.458-3.03,7.314-3.03s5.299,1.01,7.329,3.03c2.02,2.03,3.029,4.473,3.029,7.329s-1.01,5.294-3.029,7.314
		C192.042,59.558,189.599,60.573,186.742,60.573z M186.742,43.26c-1.914,0-3.549,0.678-4.905,2.034
		c-1.366,1.366-2.048,3.006-2.048,4.92s0.683,3.549,2.048,4.905c1.356,1.366,2.991,2.049,4.905,2.049s3.554-0.683,4.919-2.049
		c1.356-1.356,2.034-2.991,2.034-4.905s-0.678-3.554-2.034-4.92C190.296,43.938,188.656,43.26,186.742,43.26z"/>
	<path d="M215.106,54.413c-0.077,1.722-0.765,3.179-2.063,4.371c-1.308,1.193-2.866,1.789-4.674,1.789
		c-1.567,0-2.972-0.336-4.212-1.01c-1.491-0.808-2.438-1.981-2.842-3.521c-0.115-0.452-0.058-0.88,0.173-1.284
		c0.24-0.404,0.586-0.664,1.039-0.779c0.452-0.115,0.88-0.058,1.284,0.173c0.404,0.24,0.664,0.587,0.779,1.039
		c0.173,0.645,0.645,1.149,1.414,1.515c0.692,0.317,1.481,0.476,2.366,0.476c0.904,0,1.678-0.284,2.323-0.852
		c0.654-0.558,1-1.25,1.039-2.077c0.019-0.5-0.159-0.947-0.534-1.342c-0.596-0.635-1.596-0.962-3-0.981h-0.015
		c-0.039,0-0.048,0-0.029,0c-0.01,0-0.02,0-0.029,0c-2.356-0.039-4.16-0.716-5.41-2.034c-1.029-1.097-1.51-2.371-1.442-3.823
		c0.077-1.731,0.765-3.193,2.063-4.386s2.856-1.789,4.674-1.789c1.567,0,2.972,0.337,4.212,1.01
		c1.491,0.808,2.438,1.981,2.842,3.521c0.115,0.452,0.053,0.88-0.188,1.284c-0.231,0.404-0.572,0.664-1.024,0.779
		c-0.452,0.115-0.88,0.058-1.284-0.173c-0.404-0.24-0.664-0.586-0.779-1.039c-0.173-0.645-0.649-1.149-1.428-1.515
		c-0.683-0.318-1.467-0.477-2.352-0.477c-0.904,0-1.684,0.284-2.337,0.852c-0.645,0.567-0.986,1.26-1.024,2.077
		c-0.019,0.5,0.159,0.952,0.534,1.356c0.596,0.625,1.596,0.947,3,0.966h0.072c2.356,0.039,4.16,0.722,5.41,2.049
		C214.692,51.676,215.173,52.951,215.106,54.413z"/>
	<path d="M222.233,60.573c-0.472,0-0.871-0.168-1.198-0.505c-0.337-0.327-0.505-0.726-0.505-1.197V41.659
		c0-0.471,0.168-0.871,0.505-1.198c0.327-0.336,0.726-0.505,1.198-0.505c0.471,0,0.87,0.168,1.197,0.505
		c0.336,0.327,0.505,0.727,0.505,1.198v17.211c0,0.471-0.168,0.87-0.505,1.197C223.103,60.405,222.704,60.573,222.233,60.573z"/>
	<path d="M243.959,59.923h-0.014v-0.014l-10.373-13.345v12.307c0,0.471-0.168,0.87-0.505,1.197
		c-0.327,0.337-0.727,0.505-1.197,0.505c-0.472,0-0.871-0.168-1.198-0.505c-0.337-0.327-0.505-0.726-0.505-1.197V41.587
		c0-0.365,0.106-0.692,0.317-0.981c0.211-0.298,0.491-0.505,0.837-0.621c0.336-0.125,0.683-0.134,1.039-0.029
		c0.346,0.106,0.63,0.303,0.851,0.592l10.373,13.359V41.587c0-0.471,0.164-0.87,0.491-1.197c0.336-0.337,0.74-0.505,1.212-0.505
		c0.471,0,0.87,0.168,1.197,0.505c0.336,0.327,0.505,0.726,0.505,1.197v17.312c0,0.019-0.005,0.048-0.014,0.086
		c0,0.039,0,0.062,0,0.072c0,0.019-0.005,0.048-0.015,0.086c0,0.039-0.005,0.067-0.015,0.086l-0.014,0.072
		c-0.01,0.048-0.02,0.077-0.029,0.086c0,0.01-0.01,0.034-0.029,0.072c-0.01,0.039-0.02,0.067-0.029,0.086l-0.029,0.072l-0.043,0.072
		c-0.01,0.019-0.024,0.048-0.043,0.086l-0.043,0.043c-0.01,0.019-0.029,0.048-0.058,0.086l-0.043,0.058
		c-0.01,0.01-0.029,0.029-0.058,0.058c-0.029,0.039-0.048,0.058-0.058,0.058c0,0.01-0.019,0.029-0.058,0.058
		c-0.029,0.029-0.053,0.048-0.072,0.058c0.029-0.019,0.023-0.015-0.015,0.014l-0.015,0.015c-0.077,0.058-0.149,0.106-0.216,0.144
		h-0.014c-0.077,0.039-0.154,0.072-0.231,0.101c-0.039,0.02-0.048,0.024-0.029,0.015c-0.077,0.029-0.159,0.048-0.245,0.058
		l-0.043,0.014c-0.086,0.01-0.168,0.015-0.245,0.015c-0.058,0-0.121-0.005-0.188-0.015c0.019,0.01,0.009,0.01-0.029,0
		c-0.058-0.009-0.106-0.019-0.144-0.029c0.009,0.01-0.01,0.005-0.058-0.014c-0.048-0.01-0.086-0.019-0.116-0.029
		c-0.009,0-0.029-0.01-0.058-0.029c-0.048-0.01-0.086-0.024-0.115-0.043c-0.02,0-0.039-0.009-0.058-0.029
		c-0.039-0.019-0.072-0.034-0.101-0.043c-0.029-0.019-0.048-0.034-0.058-0.043c-0.029-0.02-0.063-0.043-0.101-0.072
		c-0.029-0.019-0.048-0.034-0.058-0.043c-0.048-0.038-0.092-0.077-0.13-0.115l-0.015-0.015v-0.014
		c-0.039-0.039-0.058-0.058-0.058-0.058S243.988,59.962,243.959,59.923z"/>
	<path d="M262.325,60.515c-2.847,0-5.28-1.01-7.3-3.03c-2.02-2.02-3.029-4.453-3.029-7.3c0-2.847,1.01-5.275,3.029-7.286
		c2.02-2.02,4.453-3.03,7.3-3.03c2.337,0,4.429,0.712,6.275,2.135c0.375,0.289,0.596,0.668,0.664,1.14
		c0.058,0.461-0.058,0.88-0.347,1.255c-0.289,0.375-0.664,0.591-1.125,0.649c-0.472,0.067-0.895-0.043-1.27-0.332
		c-1.241-0.952-2.64-1.429-4.198-1.429c-1.904,0-3.535,0.673-4.891,2.02c-1.347,1.356-2.02,2.981-2.02,4.876
		c0,1.904,0.673,3.534,2.02,4.891c1.356,1.347,2.986,2.02,4.891,2.02c1.779,0,3.328-0.601,4.646-1.803
		c0.019-0.019,0.053-0.048,0.101-0.086l0.015-3.78h-5.641c-0.481,0-0.885-0.164-1.211-0.491c-0.337-0.336-0.505-0.741-0.505-1.212
		s0.168-0.875,0.505-1.212c0.327-0.336,0.73-0.505,1.211-0.505h7.358c0.471,0,0.875,0.168,1.212,0.505
		c0.336,0.337,0.505,0.741,0.505,1.212l-0.043,9.147c0,0.471-0.168,0.87-0.505,1.197c-0.327,0.337-0.726,0.505-1.197,0.505h-0.015
		c-0.385,0-0.731-0.12-1.039-0.361c-0.298-0.23-0.496-0.524-0.591-0.88C265.619,60.121,264.018,60.515,262.325,60.515z"/>
	<path d="M287.24,43.26h-4.285c-0.472,0-0.875-0.168-1.212-0.505c-0.327-0.327-0.491-0.726-0.491-1.197s0.164-0.871,0.491-1.197
		c0.336-0.337,0.74-0.505,1.212-0.505h11.989c0.461,0,0.86,0.168,1.197,0.505c0.327,0.327,0.491,0.726,0.491,1.197
		s-0.164,0.871-0.491,1.197c-0.337,0.337-0.736,0.505-1.197,0.505h-4.299v15.61c0,0.471-0.168,0.875-0.505,1.211
		c-0.327,0.327-0.727,0.491-1.198,0.491s-0.871-0.164-1.197-0.491c-0.337-0.336-0.505-0.74-0.505-1.211V43.26z"/>
	<path d="M309.443,60.573c-2.856,0-5.294-1.015-7.314-3.044c-2.029-2.02-3.044-4.458-3.044-7.314s1.015-5.299,3.044-7.329
		c2.02-2.02,4.458-3.03,7.314-3.03s5.299,1.01,7.329,3.03c2.02,2.03,3.029,4.473,3.029,7.329s-1.01,5.294-3.029,7.314
		C314.743,59.558,312.3,60.573,309.443,60.573z M309.443,43.26c-1.914,0-3.549,0.678-4.905,2.034
		c-1.366,1.366-2.048,3.006-2.048,4.92s0.683,3.549,2.048,4.905c1.356,1.366,2.991,2.049,4.905,2.049s3.554-0.683,4.919-2.049
		c1.356-1.356,2.034-2.991,2.034-4.905s-0.678-3.554-2.034-4.92C312.997,43.938,311.357,43.26,309.443,43.26z"/>
	<path d="M333.984,60.515c-2.847,0-5.28-1.01-7.3-3.03c-2.02-2.02-3.029-4.453-3.029-7.3c0-2.847,1.01-5.275,3.029-7.286
		c2.02-2.02,4.453-3.03,7.3-3.03c2.337,0,4.429,0.712,6.275,2.135c0.375,0.289,0.596,0.668,0.664,1.14
		c0.058,0.461-0.058,0.88-0.347,1.255c-0.289,0.375-0.664,0.591-1.125,0.649c-0.472,0.067-0.895-0.043-1.27-0.332
		c-1.241-0.952-2.64-1.429-4.198-1.429c-1.904,0-3.535,0.673-4.891,2.02c-1.347,1.356-2.02,2.981-2.02,4.876
		c0,1.904,0.673,3.534,2.02,4.891c1.356,1.347,2.986,2.02,4.891,2.02c1.779,0,3.328-0.601,4.646-1.803
		c0.019-0.019,0.053-0.048,0.101-0.086l0.015-3.78h-5.641c-0.481,0-0.885-0.164-1.211-0.491c-0.337-0.336-0.505-0.741-0.505-1.212
		s0.168-0.875,0.505-1.212c0.327-0.336,0.73-0.505,1.211-0.505h7.358c0.471,0,0.875,0.168,1.212,0.505
		c0.336,0.337,0.505,0.741,0.505,1.212l-0.043,9.147c0,0.471-0.168,0.87-0.505,1.197c-0.327,0.337-0.726,0.505-1.197,0.505h-0.015
		c-0.385,0-0.731-0.12-1.039-0.361c-0.298-0.23-0.496-0.524-0.591-0.88C337.278,60.121,335.676,60.515,333.984,60.515z"/>
	<path d="M359.721,57.154c0.471,0,0.87,0.168,1.197,0.505c0.336,0.336,0.505,0.741,0.505,1.212s-0.168,0.87-0.505,1.197
		c-0.327,0.337-0.727,0.505-1.197,0.505h-10.445c-0.471,0-0.871-0.168-1.197-0.505c-0.337-0.327-0.505-0.726-0.505-1.197V41.572
		c0-0.48,0.168-0.885,0.505-1.211c0.327-0.337,0.726-0.505,1.197-0.505h0.015l10.431,0.029c0.471,0,0.875,0.168,1.211,0.505
		c0.327,0.336,0.491,0.741,0.491,1.212s-0.168,0.87-0.505,1.197c-0.327,0.337-0.727,0.505-1.197,0.505h-0.015l-8.714-0.029v5.237
		h6.29c0.471,0,0.875,0.164,1.212,0.491c0.336,0.337,0.505,0.741,0.505,1.212s-0.168,0.875-0.505,1.212
		c-0.337,0.327-0.741,0.49-1.212,0.49h-6.29v5.237H359.721z"/>
	<path d="M369.907,43.26h-4.285c-0.472,0-0.875-0.168-1.212-0.505c-0.327-0.327-0.491-0.726-0.491-1.197s0.164-0.871,0.491-1.197
		c0.336-0.337,0.74-0.505,1.212-0.505h11.989c0.461,0,0.86,0.168,1.197,0.505c0.327,0.327,0.491,0.726,0.491,1.197
		s-0.164,0.871-0.491,1.197c-0.337,0.337-0.736,0.505-1.197,0.505h-4.299v15.61c0,0.471-0.168,0.875-0.505,1.211
		c-0.327,0.327-0.727,0.491-1.198,0.491s-0.871-0.164-1.197-0.491c-0.337-0.336-0.505-0.74-0.505-1.211V43.26z"/>
	<path d="M397.102,60.573c-0.472,0-0.876-0.168-1.212-0.505c-0.336-0.336-0.505-0.741-0.505-1.212v-6.911h-8.887v6.911
		c0,0.471-0.164,0.875-0.491,1.212c-0.337,0.337-0.741,0.505-1.212,0.505s-0.875-0.168-1.212-0.505
		c-0.337-0.336-0.505-0.741-0.505-1.212v-17.24c0-0.471,0.168-0.875,0.505-1.212c0.336-0.336,0.741-0.505,1.212-0.505
		s0.875,0.168,1.212,0.505c0.327,0.337,0.491,0.741,0.491,1.212v6.911h8.887v-6.911c0-0.471,0.168-0.875,0.505-1.212
		c0.336-0.336,0.741-0.505,1.212-0.505c0.471,0,0.875,0.168,1.212,0.505c0.336,0.337,0.505,0.741,0.505,1.212v17.24
		c0,0.471-0.169,0.875-0.505,1.212C397.977,60.405,397.572,60.573,397.102,60.573z"/>
	<path d="M417.198,57.154c0.472,0,0.871,0.168,1.197,0.505c0.337,0.336,0.506,0.741,0.506,1.212s-0.169,0.87-0.506,1.197
		c-0.326,0.337-0.726,0.505-1.197,0.505h-10.445c-0.471,0-0.87-0.168-1.197-0.505c-0.337-0.327-0.505-0.726-0.505-1.197V41.572
		c0-0.48,0.168-0.885,0.505-1.211c0.327-0.337,0.727-0.505,1.197-0.505h0.015l10.431,0.029c0.472,0,0.875,0.168,1.212,0.505
		c0.327,0.336,0.491,0.741,0.491,1.212s-0.169,0.87-0.506,1.197c-0.326,0.337-0.726,0.505-1.197,0.505h-0.014l-8.714-0.029v5.237
		h6.29c0.471,0,0.875,0.164,1.212,0.491c0.336,0.337,0.505,0.741,0.505,1.212s-0.169,0.875-0.505,1.212
		c-0.337,0.327-0.741,0.49-1.212,0.49h-6.29v5.237H417.198z"/>
	<path d="M437.453,45.872c0,1.27-0.395,2.419-1.183,3.448c-0.76,1.02-1.761,1.746-3.001,2.178l3.274,6.637
		c0.202,0.414,0.227,0.842,0.072,1.284c-0.144,0.443-0.428,0.77-0.851,0.981c-0.241,0.116-0.491,0.173-0.751,0.173
		c-0.702,0-1.207-0.317-1.515-0.952l-3.823-7.747h-2.929v6.881c0,0.462-0.168,0.861-0.505,1.198c-0.327,0.327-0.726,0.49-1.197,0.49
		c-0.462,0-0.86-0.164-1.197-0.49c-0.327-0.337-0.49-0.736-0.49-1.198V41.558c0-0.471,0.163-0.871,0.49-1.197
		c0.337-0.337,0.735-0.505,1.197-0.505h5.973c1.779,0,3.294,0.587,4.545,1.76C436.823,42.79,437.453,44.208,437.453,45.872z
		 M431.134,48.483c0.809-0.029,1.501-0.293,2.078-0.793c0.567-0.51,0.851-1.116,0.851-1.818c0-0.73-0.298-1.351-0.895-1.861
		c-0.596-0.51-1.312-0.765-2.149-0.765h-4.271v5.237H431.134z"/>
</g>
<g>
</g>
<g>
</g>
<g>
</g>
<g>
</g>
<g>
</g>
<g>
</g>
<g>
</g>
<g>
</g>
<g>
</g>
<g>
</g>
<g>
</g>
<g>
</g>
<g>
</g>
<g>
</g>
<g>
</g>
</svg>
